<svg width="64" height="61" viewBox="0 0 64 61" fill="none" xmlns="http://www.w3.org/2000/svg">
<path d="M25.3559 35.2317C25.3381 35.1014 25.2315 35.0007 25.1012 35.0007C25.1012 35.0007 25.0953 35.0007 25.0894 35.0007C24.6155 35.0244 24.1239 34.977 23.6323 34.8704C23.502 34.8408 23.3776 34.906 23.3243 35.0185C21.8258 38.5663 20.9019 42.2977 20.582 46.1121C22.9808 47.7172 25.7527 48.7004 28.6253 48.961C27.0202 44.5247 25.9186 39.9049 25.3559 35.2317Z" fill="black"/>
<path d="M20.5173 47.0996C20.3337 50.2624 20.5707 53.443 21.2103 56.5525C25.0069 58.6493 29.3188 59.7628 33.6839 59.7628C33.7017 59.7628 33.7254 59.7628 33.7432 59.7628C31.8538 56.5999 30.2427 53.2713 28.9456 49.8597C25.9546 49.6583 23.0464 48.7047 20.5114 47.1055L20.5173 47.0996Z" fill="black"/>
<path d="M19.7759 45.5311C20.1372 41.8234 21.0552 38.2045 22.5004 34.7633C22.5537 34.633 22.5004 34.4849 22.3642 34.4257C21.7778 34.1414 21.2566 33.7624 20.8065 33.3063C20.7058 33.2056 20.5577 33.1938 20.4511 33.2708C18.1945 35.0121 16.2458 37.2272 14.8125 39.6734C16.003 41.9537 17.7147 43.9734 19.7759 45.5311Z" fill="black"/>
<path d="M19.6822 46.5444C17.4849 44.9808 15.631 42.9255 14.3161 40.5801C13.1138 42.8782 12.326 45.3539 11.9766 47.9422C14.0792 51.1821 16.9222 53.9599 20.2153 55.9737C19.6408 52.8642 19.4572 49.6895 19.6822 46.5444Z" fill="black"/>
<path d="M7.82422 33.8859C7.82422 38.4228 9.01472 42.8828 11.2773 46.7978C11.7333 44.2687 12.5921 41.8581 13.83 39.6429C12.6573 37.2323 12.0413 34.6499 11.9999 31.9609C10.5724 32.4644 9.16872 33.0863 7.83014 33.797V33.8859H7.82422Z" fill="black"/>
<path d="M19.9176 32.5902C20.0242 32.5072 20.0479 32.3592 19.9768 32.2407C19.6688 31.7313 19.4497 31.1805 19.3134 30.606C19.2838 30.4698 19.1594 30.375 19.0291 30.3928C16.9384 30.6001 14.8653 31.0324 12.8516 31.678C12.8516 34.136 13.3609 36.5111 14.3619 38.75C15.813 36.4045 17.732 34.2782 19.9176 32.5961V32.5902Z" fill="black"/>
<path d="M10.9059 21.627C9.03425 25.0978 8.00367 28.8588 7.84375 32.8094C9.19417 32.1164 10.586 31.5182 11.9957 31.0384H12.0075C12.1023 28.3435 12.7657 25.7789 13.9917 23.392C13.127 22.9004 12.2741 22.4088 11.4153 21.9172L10.9059 21.627Z" fill="black"/>
<path d="M12.8809 30.7541C14.8592 30.144 16.9085 29.7294 18.9637 29.5221C19.0881 29.5103 19.1829 29.4155 19.2006 29.2911C19.2125 29.1904 19.2243 29.0779 19.2303 28.9594C19.2717 28.4501 19.325 27.7571 19.7159 26.8923C19.7692 26.7739 19.7159 26.6317 19.5975 26.5666C17.9746 25.6545 16.3517 24.7364 14.7348 23.8184C13.6272 25.9861 13.0053 28.3138 12.875 30.7481L12.8809 30.7541Z" fill="black"/>
<path d="M14.4001 22.6331C15.8334 20.1455 17.8472 18.0014 20.246 16.4318C19.9735 15.0932 19.7307 13.6777 19.5352 12.2266C16.1888 14.424 13.3517 17.4091 11.332 20.874L11.9599 21.2353C12.7713 21.7032 13.5827 22.1711 14.406 22.639L14.4001 22.6331Z" fill="black"/>
<path d="M15.1523 23.0594C16.716 23.9478 18.3685 24.8837 20.0683 25.8372C20.1809 25.9024 20.323 25.8728 20.4059 25.7662C20.8857 25.162 21.4721 24.6764 22.1414 24.3091C22.2598 24.244 22.3131 24.1137 22.2717 23.9952C21.5491 21.8215 20.9272 19.5827 20.4356 17.3379C18.2796 18.8127 16.4554 20.785 15.1523 23.0594Z" fill="black"/>
<path d="M21.0309 15.9401C23.3527 14.5837 25.8759 13.7723 28.5352 13.5295C29.5717 11.5808 30.8274 9.73881 32.2726 8.05078C28.0673 8.27585 23.945 9.54927 20.332 11.7289C20.5216 13.1563 20.7526 14.5719 21.025 15.9401H21.0309Z" fill="black"/>
<path d="M23.0706 23.6396C23.1121 23.7699 23.2601 23.8469 23.4023 23.8114C23.9472 23.6692 24.5099 23.6041 25.0548 23.6277C25.1851 23.6396 25.2976 23.5389 25.3213 23.4027C25.7714 20.2872 26.7013 17.2725 28.0814 14.4473C25.6471 14.7493 23.3371 15.5489 21.2227 16.8401C21.7143 19.1323 22.3362 21.4185 23.0765 23.6455L23.0706 23.6396Z" fill="black"/>
<path d="M33.5486 8.00977C33.5486 8.00977 33.4894 8.00977 33.4598 8.00977C31.9613 9.66818 30.6523 11.4983 29.5625 13.4588C29.752 13.4529 29.9771 13.447 30.2022 13.447C32.6009 13.447 34.9464 13.9149 37.1734 14.8448C39.7084 13.1212 42.4566 11.753 45.3529 10.7876C41.7163 8.94558 37.7953 8.00977 33.6908 8.00977C33.6434 8.00977 33.596 8.00977 33.5486 8.00977Z" fill="black"/>
<path d="M26.1739 23.5325C26.1561 23.6628 26.239 23.7931 26.3753 23.8286C26.8076 23.9471 27.2282 24.1248 27.6191 24.3439C27.7375 24.4091 27.8856 24.3795 27.9626 24.2669C30.1718 20.8672 33.0622 17.8169 36.3257 15.4359C34.3593 14.6896 32.3041 14.3105 30.2015 14.3105C29.8639 14.3105 29.5026 14.3224 29.082 14.352C27.6132 17.2305 26.63 20.3164 26.168 23.5325H26.1739Z" fill="black"/>
<path d="M55.4496 19.9022C53.1811 16.3781 50.0657 13.4226 46.4231 11.3555C43.4794 12.2557 40.6838 13.5706 38.1133 15.2587C40.7549 16.538 43.0767 18.457 44.8239 20.8084C48.3184 20.1154 51.8959 19.8134 55.4496 19.8963V19.9022Z" fill="black"/>
<path d="M37.2724 15.8223C33.8904 18.1973 30.9112 21.3009 28.6546 24.7895C28.5835 24.8961 28.6072 25.0442 28.702 25.1331C29.0633 25.4647 29.3772 25.8438 29.6378 26.2584C29.7148 26.3828 29.8688 26.4242 29.9932 26.3532C34.3287 23.8715 39.0019 22.0709 43.8824 21.0107C42.1351 18.7719 39.8548 16.9832 37.2724 15.8223Z" fill="black"/>
<path d="M30.4928 28.5848C30.5106 28.721 30.6172 28.8217 30.7475 28.8217C30.7475 28.8217 30.7535 28.8217 30.7594 28.8217C32.6073 28.7328 34.5145 28.6618 36.4039 28.6618C37.9616 28.6618 39.5134 28.7091 41.006 28.8394C43.1501 29.0231 45.3119 29.2955 47.4382 29.6568C47.1125 26.8375 46.0819 24.113 44.4531 21.7734C39.4897 22.8099 34.7455 24.6223 30.3448 27.1514C30.2382 27.2166 30.1849 27.3528 30.2322 27.4772C30.3566 27.8385 30.4455 28.2116 30.4928 28.5848Z" fill="black"/>
<path d="M59.5209 32.7024C59.3313 28.5149 58.1112 24.3985 55.9908 20.7914C52.443 20.6611 48.8715 20.9336 45.3711 21.5969C47.0117 24.0549 48.0305 26.8979 48.3266 29.8238C52.0995 30.505 55.8665 31.4763 59.5209 32.7024Z" fill="black"/>
<path d="M59.5505 33.625C55.908 32.3871 52.1588 31.4039 48.3977 30.7109C48.4155 31.0604 48.4274 31.3743 48.4274 31.6704C48.4274 34.6615 47.687 37.623 46.2773 40.2468C49.6949 42.0355 53.2367 43.7946 56.8082 45.4767C58.6266 41.8519 59.5505 37.9487 59.5505 33.8797C59.5505 33.8205 59.5505 33.7612 59.5505 33.6961C59.5505 33.6724 59.5505 33.6428 59.5505 33.6191V33.625Z" fill="black"/>
<path d="M47.5177 30.5519C45.3322 30.1729 43.117 29.8886 40.9315 29.705C39.4626 29.5806 37.9404 29.5332 36.4005 29.5332C34.5111 29.5332 32.598 29.6043 30.7441 29.6931C30.6138 29.6931 30.5131 29.7997 30.4953 29.936C30.4539 30.3032 30.3769 30.6645 30.2703 31.0139C30.2347 31.1324 30.2762 31.2627 30.3828 31.3278C35.4291 34.3485 40.9374 37.4462 45.5158 39.8331C46.8484 37.3337 47.5533 34.5203 47.5533 31.6773C47.5533 31.3397 47.5414 30.9784 47.5118 30.5579L47.5177 30.5519Z" fill="black"/>
<path d="M45.0899 40.579L44.9182 40.4902C40.3576 38.1033 35.0862 35.1418 30.0873 32.1508C30.0458 32.1271 29.9984 32.1152 29.951 32.1152C29.8622 32.1152 29.7793 32.1567 29.7319 32.2337C29.5068 32.6068 29.2344 32.9622 28.9204 33.282C28.8316 33.3709 28.8138 33.5071 28.879 33.6078C31.7338 38.3106 35.0151 42.7587 38.6458 46.8336C41.2993 45.347 43.5263 43.191 45.0899 40.579Z" fill="black"/>
<path d="M30.206 49.0306C32.889 49.0306 35.4655 48.4323 37.8584 47.2478C34.2928 43.2202 31.0589 38.8373 28.2396 34.2115C28.204 34.1523 28.1448 34.1049 28.0737 34.093C28.0086 34.0753 27.9375 34.093 27.8842 34.1226C27.4222 34.4129 26.9306 34.6379 26.4213 34.786C26.2909 34.8215 26.208 34.9459 26.2199 35.0762C26.7944 39.8382 27.9197 44.5292 29.5782 49.0246C29.7914 49.0306 29.9987 49.0365 30.2119 49.0365L30.206 49.0306Z" fill="black"/>
<path d="M38.457 47.918C35.8806 49.2329 33.1027 49.9021 30.2005 49.9021C30.0998 49.9021 29.9991 49.9021 29.8984 49.9021C31.2133 53.3078 32.8421 56.6187 34.7434 59.746C39.0256 59.5742 43.2309 58.3245 46.909 56.133C43.9298 53.598 41.0868 50.838 38.457 47.9239V47.918Z" fill="black"/>
<path d="M39.2461 47.4915C41.8759 50.3819 44.7129 53.1242 47.6921 55.6414C51.3347 53.29 54.3495 50.0443 56.4166 46.2477C52.8391 44.5656 49.2854 42.8006 45.8501 41C44.245 43.689 41.9647 45.9278 39.2461 47.4856V47.4915Z" fill="black"/>
<path d="M15.4055 57.9077L13.3867 60.6211L13.8952 60.9994L15.914 58.286L15.4055 57.9077Z" fill="black"/>
<path d="M13.7124 56.5418L12.9365 57.377C12.5219 57.8212 12.0836 58.3069 11.8763 58.5615H11.8704C12.0007 58.1469 12.4331 56.2931 12.6108 55.5231L12.054 55.0078L9.75 57.4895L10.1764 57.8863L10.9346 57.069C11.3136 56.6603 11.6986 56.2457 11.9355 55.9436H11.9415C11.8112 56.3345 11.4499 58.0107 11.2485 58.8814L11.8349 59.4263L14.1389 56.9446L13.7124 56.5478V56.5418Z" fill="black"/>
<path d="M10.5434 53.2904L10.1347 52.7988L7.93142 54.6231L7.26805 53.8116L6.85938 54.1492L8.60071 56.2578L9.00938 55.9202L8.3401 55.1088L10.5434 53.2904Z" fill="black"/>
<path d="M7.49722 49.0195L7.01154 49.2387L7.98882 50.7609L7.16554 51.288L6.28303 49.908L5.83881 50.1923L6.72725 51.5723L6.02834 52.0224L5.09845 50.5773L4.66016 50.8616L5.91581 52.828L8.76472 50.9978L7.49722 49.0195Z" fill="black"/>
<path d="M6.56743 47.2546L5.29993 47.8588L5.06301 47.3612C4.82017 46.8459 4.94456 46.6683 5.31177 46.4965L5.36508 46.4728C5.67899 46.3247 5.90406 46.2063 6.01068 46.0937L5.75007 45.5488C5.63161 45.6614 5.38877 45.7739 5.18147 45.8746L5.03932 45.9457C4.50034 46.2003 4.43519 46.5083 4.4648 46.7216C4.2575 46.5202 3.92582 46.4017 3.51714 46.5913C3.04331 46.8163 2.85378 47.3375 3.16177 47.995L3.77775 49.2862L6.83396 47.8291L6.56743 47.2665V47.2546ZM3.9732 48.4866L3.67706 47.8706C3.51122 47.5152 3.57637 47.2605 3.85474 47.1302C4.13904 46.994 4.37004 47.0829 4.55957 47.4856L4.84387 48.0779L3.97912 48.4866H3.9732Z" fill="black"/>
<path d="M5.05162 43.6481L3.96181 43.9916C3.38137 44.1753 2.75946 44.3766 2.4574 44.4951C2.77131 44.1989 4.06842 42.7952 4.60148 42.2148L4.37641 41.4922L1.14844 42.505L1.3202 43.0618L2.3804 42.7301C2.90754 42.5642 3.45244 42.3925 3.80782 42.2444C3.50575 42.5228 2.35671 43.8021 1.7585 44.4536L1.99541 45.2177L5.22339 44.2049L5.0457 43.6481H5.05162Z" fill="black"/>
<path d="M3.97561 39.6912L3.07533 39.5372L2.86803 38.2756L3.66762 37.8255L3.56101 37.1621L0.421875 38.9212L0.552179 39.703L4.08222 40.3012L3.98153 39.6853L3.97561 39.6912ZM0.954935 39.2647C1.22739 39.1344 1.65384 38.8975 2.37643 38.5066L2.53635 39.4839C1.84929 39.3773 1.28069 39.2943 0.954935 39.2647Z" fill="black"/>
<path d="M0.610058 35.7934L3.46489 35.6454L3.43528 35.0116L0.580443 35.1597L0.527137 34.1113L0 34.135L0.142149 36.8714L0.663364 36.8418L0.610058 35.7934Z" fill="black"/>
<path d="M0.0659327 31.9606L0.0390625 32.5938L3.42391 32.7374L3.45078 32.1042L0.0659327 31.9606Z" fill="black"/>
<path d="M1.84033 30.4272C2.79984 30.5753 3.64681 30.1429 3.80673 29.1123C3.97257 28.0343 3.24998 27.3651 2.32009 27.2229C1.30727 27.0689 0.519527 27.5664 0.371455 28.5378C0.211537 29.5684 0.8749 30.2791 1.84033 30.4272ZM0.880823 28.6444C0.981512 27.981 1.56196 27.7737 2.22532 27.8744C2.86499 27.9751 3.39805 28.3186 3.29144 29.0057C3.19075 29.6454 2.60438 29.8764 1.92325 29.7698C1.24804 29.6631 0.774211 29.2959 0.880823 28.6385V28.6444Z" fill="black"/>
<path d="M4.5013 25.5885L3.41149 25.2509C2.83105 25.0732 2.20322 24.8837 1.88338 24.8126C2.30983 24.7415 4.16962 24.3269 4.9396 24.1551L5.16467 23.4325L1.93077 22.4375L1.759 22.9943L2.82512 23.32C3.35818 23.4859 3.89717 23.6517 4.27623 23.7287C3.87348 23.7879 2.20322 24.1907 1.33848 24.3861L1.10156 25.1502L4.33546 26.1452L4.50723 25.5885H4.5013Z" fill="black"/>
<path d="M5.86239 21.7277L5.21087 21.088L5.75578 19.933L6.66791 20.016L6.9522 19.4118L3.36885 19.0742L3.03125 19.7909L5.59586 22.2903L5.86239 21.7217V21.7277ZM3.61762 19.6606C3.91376 19.708 4.39944 19.7554 5.21087 19.8442L4.79035 20.7445C4.28098 20.2706 3.86638 19.8738 3.61169 19.6606H3.61762Z" fill="black"/>
<path d="M8.784 16.4558L8.37532 16.1064L7.46319 17.5575L5.04665 16.0234L4.70312 16.5624L7.56388 18.3748L8.784 16.4558Z" fill="black"/>
<path d="M11.2402 13.3937L10.2866 12.4993L10.7663 11.984C11.2224 11.4983 11.3349 10.8764 10.8137 10.3967C10.3517 9.96431 9.74168 10.0413 9.26193 10.5507L8.33203 11.5457L10.8019 13.8616L11.2342 13.3996L11.2402 13.3937ZM9.14347 11.4273L9.58768 10.9534C9.81868 10.7047 10.1148 10.6218 10.3814 10.8764C10.6479 11.1252 10.6005 11.4095 10.3399 11.6879L9.90752 12.1499L9.13754 11.4273H9.14347Z" fill="black"/>
<path d="M14.6666 10.2179C15.5135 9.5308 15.4247 8.5476 14.8324 7.81908C14.1868 7.01949 13.2628 6.8655 12.5047 7.48148C11.6933 8.13892 11.711 9.11027 12.327 9.8684C12.9371 10.6206 13.8551 10.8694 14.6666 10.2179ZM12.8127 7.90793C13.3339 7.4874 13.9025 7.72432 14.323 8.24553C14.7317 8.74898 14.8916 9.35903 14.3527 9.80325C13.8551 10.2119 13.2569 9.98094 12.8246 9.4538C12.3981 8.92666 12.2915 8.33437 12.8068 7.91385L12.8127 7.90793Z" fill="black"/>
<path d="M19.0104 7.18585L18.8031 6.70017L17.3401 7.59453L15.8476 5.1543L15.3086 5.48598L17.0736 8.37635L19.0104 7.18585Z" fill="black"/>
<path d="M20.5661 6.39837L20.4891 5.48625L21.6559 4.97096L22.2897 5.63432L22.8997 5.36187L20.4121 2.76172L19.6836 3.08155L19.9857 6.65306L20.5602 6.39837H20.5661ZM20.2285 3.35993C20.418 3.59092 20.7497 3.9463 21.3124 4.55043L20.4062 4.95319C20.3351 4.26021 20.2759 3.68569 20.2226 3.36585L20.2285 3.35993Z" fill="black"/>
<path d="M24.628 4.79862L24.2312 3.45412L24.7643 3.30013C25.3092 3.14021 25.4632 3.28828 25.5816 3.67919L25.5994 3.7325C25.6942 4.06418 25.7771 4.30702 25.8718 4.4314L26.4523 4.25963C26.3634 4.12933 26.2864 3.86872 26.2213 3.64365L26.1739 3.48966C26.0021 2.91514 25.7119 2.80853 25.4987 2.8026C25.7297 2.63084 25.9015 2.31693 25.7711 1.89048C25.6231 1.38703 25.1374 1.11458 24.4444 1.32188L23.0703 1.72464L24.0239 4.97038L24.6221 4.7927L24.628 4.79862ZM24.474 1.84902C24.8531 1.73648 25.09 1.84902 25.1729 2.13924C25.2618 2.44131 25.1374 2.65453 24.7169 2.77891L24.089 2.96252L23.8166 2.04447L24.474 1.84902Z" fill="black"/>
<path d="M30.43 3.59059L30.2938 2.18686L31.8574 2.03287L31.8101 1.51166L30.2464 1.65973L30.1576 0.741679L31.8278 0.581761L31.7745 0.0605469L29.4883 0.279694L29.8081 3.64982L30.43 3.59059Z" fill="black"/>
<path d="M34.8501 3.48432C35.9399 3.52578 36.5204 2.72619 36.5559 1.79037C36.5914 0.765712 36.0051 0.0431194 35.0278 0.00165917C33.9854 -0.0398011 33.3575 0.70056 33.322 1.68376C33.2865 2.65511 33.8136 3.44286 34.8501 3.48432ZM34.9804 0.522874C35.6497 0.546565 35.9221 1.10332 35.8985 1.7726C35.8748 2.4182 35.5964 2.9868 34.8975 2.9631C34.2519 2.93941 33.9557 2.37674 33.9794 1.69561C34.0031 1.01447 34.317 0.505105 34.9804 0.528796V0.522874Z" fill="black"/>
<path d="M39.1872 3.95293C39.9158 4.08324 40.6087 3.90555 40.816 2.78612L41.1714 0.825648L40.5436 0.713113L40.1823 2.7032C40.0638 3.36657 39.7321 3.53833 39.2879 3.45541C38.9029 3.38434 38.5772 3.12373 38.7016 2.43075L39.0629 0.44066L38.435 0.328125L38.0737 2.31229C37.8783 3.39618 38.4528 3.82263 39.1813 3.95886L39.1872 3.95293Z" fill="black"/>
<path d="M42.9766 3.64391C43.1721 3.06939 43.3735 2.44749 43.4564 2.12765H43.4623C43.5097 2.5541 43.8828 4.43166 44.0368 5.20756L44.7535 5.45039L45.8374 2.24019L45.2866 2.05658L44.9312 3.11085C44.7535 3.63799 44.5699 4.17697 44.4811 4.55011H44.4751C44.4337 4.14143 44.0783 2.46526 43.9006 1.58867L43.1425 1.33398L42.0586 4.54419L42.6153 4.73372L42.9826 3.64983L42.9766 3.64391Z" fill="black"/>
<path d="M49.5812 5.82881C50.0373 4.93445 49.753 4.06379 48.8882 3.61957L47.7332 3.0332L46.1992 6.05388L47.3305 6.6284C48.2367 7.09038 49.131 6.71132 49.5812 5.82881ZM48.059 3.78541L48.598 4.05786C49.2377 4.38362 49.2554 5.00553 48.9889 5.53266C48.675 6.15457 48.1597 6.46848 47.5319 6.14864L46.9929 5.87619L48.0531 3.78541H48.059Z" fill="black"/>
<path d="M50.1598 8.24133L50.8943 7.70235L51.9426 8.43086L51.7057 9.3193L52.2565 9.69836L53.1805 6.22162L52.529 5.77148L49.6445 7.89188L50.1598 8.24725V8.24133ZM52.5704 6.3697C52.4698 6.654 52.3394 7.12783 52.1203 7.91557L51.3029 7.3529C51.8597 6.93237 52.3158 6.58292 52.5645 6.3697H52.5704Z" fill="black"/>
<path d="M53.8977 11.1018L55.7812 8.95174L56.5689 9.6388L56.9184 9.24197L54.8572 7.44141L54.5078 7.83824L55.3014 8.53122L53.418 10.6872L53.8977 11.1018Z" fill="black"/>
<path d="M57.9975 10.3567L55.5352 12.6836L55.9704 13.1442L58.4328 10.8173L57.9975 10.3567Z" fill="black"/>
<path d="M57.8612 15.4726C58.5186 16.3433 59.5019 16.2841 60.2541 15.7214C61.0714 15.0995 61.2609 14.1874 60.6687 13.4056C60.0408 12.5763 59.0695 12.5586 58.2877 13.1509C57.5118 13.7372 57.2334 14.6494 57.8612 15.4786V15.4726ZM58.6963 13.6602C59.2412 13.2516 59.8335 13.1627 60.2363 13.6958C60.639 14.2288 60.3844 14.7915 59.8513 15.2002C59.336 15.5911 58.72 15.7333 58.2995 15.1765C57.9086 14.6612 58.1574 14.0748 58.7023 13.6602H58.6963Z" fill="black"/>
<path d="M63.69 18.2731L62.7127 18.8121C62.227 19.0786 61.7295 19.3511 61.4097 19.5702C61.6525 19.2385 62.5232 17.7578 62.9852 16.9997L62.6002 16.3008L59.6328 17.9355L59.9171 18.4508L60.9181 17.9C61.4511 17.6097 62.0197 17.2899 62.2981 17.1063C62.0494 17.4617 61.0543 19.0905 60.6397 19.7657L61.0069 20.429L63.9743 18.8002L63.6959 18.2909L63.69 18.2731Z" fill="black"/>
</svg>
