<svg width="259" height="189" viewBox="0 0 259 189" fill="none" xmlns="http://www.w3.org/2000/svg">
<path fill-rule="evenodd" clip-rule="evenodd" d="M39.88 19.2902L34.58 6.40023C34.42 6.02023 34 5.59023 33.62 5.43023L20.75 0.110234C20.37 -0.0497656 19.77 -0.0497656 19.38 0.110234L6.47 5.46023C6.09 5.62023 5.66 6.04023 5.5 6.43023L0.12 19.3202C-0.04 19.7002 -0.04 20.3002 0.12 20.6902L5.42 33.5802C5.58 33.9602 6 34.3902 6.38 34.5502L19.25 39.8802C19.63 40.0402 20.23 40.0402 20.62 39.8802L33.53 34.5302C33.91 34.3702 34.34 33.9502 34.5 33.5602L39.88 20.6702C40.04 20.2902 40.04 19.6902 39.88 19.3002V19.2902ZM34.89 19.9102V19.9502V19.9302C34.89 20.5502 34.64 21.1402 34.21 21.5802C33.77 22.0202 33.19 22.2502 32.55 22.2502C32.55 22.2502 13.29 22.2502 10.23 22.2502C11.02 24.2302 12.06 26.8002 12.43 27.7402C12.45 27.7402 18.97 30.3602 19.88 30.7402C20.74 30.4102 28.19 27.5202 28.19 27.5202C29.25 27.1102 30.44 27.6402 30.85 28.7002C31.26 29.7602 30.73 30.9502 29.67 31.3602L20.86 34.7702C20.21 35.0402 19.48 35.0502 18.89 34.7802L10.48 31.3802C9.73 31.0702 9.05 30.3802 8.75 29.6202L5.41 21.2802C5.11 20.5402 5.12 19.5802 5.43 18.8402L8.91 10.4602C9.22 9.72023 9.89 9.04023 10.63 8.73023L18.9 5.22023C19.65 4.90023 20.62 4.90023 21.37 5.21023L29.58 8.62023C30.33 8.93023 31.01 9.62023 31.31 10.3802L34.65 18.7202C34.83 19.1702 34.87 19.6102 34.87 19.9102H34.89ZM20.17 9.16023C18.8 9.74023 13.92 11.8202 12.59 12.3802C12.41 12.8202 11.15 15.8402 10.2 18.1302C14.4 18.1302 25.08 18.1302 30 18.1302C29.19 16.1202 28.05 13.2702 27.65 12.2702C27.02 12.0102 20.8 9.42023 20.17 9.16023Z" fill="#0074F0"/>
<path d="M3.7 88V53.75H16.3C22.75 53.75 28.4 57.05 28.4 64C28.4 71.1 23.15 74.8 15.7 74.8H10.7V88H3.7ZM10.7 59.3V69.25H15.3C19 69.25 21.3 67.9 21.3 64.1C21.3 60.7 18.95 59.3 15.5 59.3H10.7ZM45.034 73.85H40.384V88H33.534V53.75H47.484C53.934 53.75 58.584 56.95 58.584 63C58.584 67.7 56.134 69.9 53.234 71C56.634 72.35 57.884 75 57.884 79.25V80.15C57.884 83.2 58.034 86.1 58.334 88H51.584C51.084 86.55 50.934 84.25 50.934 80.05V79.15C50.934 75.2 49.534 73.85 45.034 73.85ZM40.384 59.3V68.3H45.584C48.934 68.3 51.684 67.4 51.684 63.6C51.684 60.45 49.384 59.3 46.584 59.3H40.384ZM64.6863 53.75H71.6863V88H64.6863V53.75ZM85.7824 88H79.4324V53.75H88.3324C98.5324 74.6 100.182 78 100.682 79.65H100.782C100.432 75.55 100.382 69.95 100.382 64.35V53.75H106.782V88H98.2324C87.2824 65.05 86.0824 62.3 85.5824 61H85.5324C85.7824 65.35 85.7824 71.25 85.7824 77.4V88ZM134.439 77.2H141.339C140.389 83 136.489 88.5 127.739 88.5C116.939 88.5 113.039 80.65 113.039 70.85C113.039 61.2 117.989 53.3 127.989 53.3C137.239 53.3 140.789 59.2 141.139 64.5H134.289C133.589 61.7 132.489 58.9 127.789 58.9C122.089 58.9 120.189 64.65 120.189 70.85C120.189 77.35 121.989 82.95 127.839 82.95C132.439 82.95 133.789 79.75 134.439 77.2ZM168.173 67.25V73.05H153.273V82.25H169.723L168.873 88H146.473V53.75H168.823V59.5H153.273V67.25H168.173ZM173.037 77.9H179.937C180.437 81 182.437 83.05 186.087 83.05C189.987 83.05 191.387 81.35 191.387 78.9C191.387 75.8 189.487 74.5 184.537 73.1C176.587 70.9 173.887 68.05 173.887 63.1C173.887 56.75 178.987 53.3 185.487 53.3C193.737 53.3 197.187 57.55 197.587 63.05H190.737C190.287 60.55 189.087 58.6 185.437 58.6C182.337 58.6 180.837 60.05 180.837 62.45C180.837 65 182.587 65.7 187.437 67.1C196.187 69.65 198.437 73.15 198.437 78.1C198.437 83.65 194.737 88.45 185.787 88.45C178.287 88.45 173.437 84.65 173.037 77.9ZM202.382 77.9H209.282C209.782 81 211.782 83.05 215.432 83.05C219.332 83.05 220.732 81.35 220.732 78.9C220.732 75.8 218.832 74.5 213.882 73.1C205.932 70.9 203.232 68.05 203.232 63.1C203.232 56.75 208.332 53.3 214.832 53.3C223.082 53.3 226.532 57.55 226.932 63.05H220.082C219.632 60.55 218.432 58.6 214.782 58.6C211.682 58.6 210.182 60.05 210.182 62.45C210.182 65 211.932 65.7 216.782 67.1C225.532 69.65 227.782 73.15 227.782 78.1C227.782 83.65 224.082 88.45 215.132 88.45C207.632 88.45 202.782 84.65 202.382 77.9ZM25.4 117.25V123.05H10.5V132.25H26.95L26.1 138H3.7V103.75H26.05V109.5H10.5V117.25H25.4ZM32.0203 138V103.75H39.0203V132.25H54.3203L53.5203 138H32.0203ZM58.7781 103.75H65.7781V138H58.7781V103.75ZM70.9371 127.9H77.8371C78.3371 131 80.3371 133.05 83.9871 133.05C87.8871 133.05 89.2871 131.35 89.2871 128.9C89.2871 125.8 87.3871 124.5 82.4371 123.1C74.4871 120.9 71.7871 118.05 71.7871 113.1C71.7871 106.75 76.8871 103.3 83.3871 103.3C91.6371 103.3 95.0871 107.55 95.4871 113.05H88.6371C88.1871 110.55 86.9871 108.6 83.3371 108.6C80.2371 108.6 78.7371 110.05 78.7371 112.45C78.7371 115 80.4871 115.7 85.3371 117.1C94.0871 119.65 96.3371 123.15 96.3371 128.1C96.3371 133.65 92.6371 138.45 83.6871 138.45C76.1871 138.45 71.3371 134.65 70.9371 127.9ZM119.533 129.85H108.183L105.783 138H98.9328C99.3828 136.65 108.883 105.25 109.383 103.75H118.433L129.433 138H122.133L119.533 129.85ZM109.533 124.1H118.133C116.033 117.15 114.533 112.25 113.733 109.05H113.683C112.883 112.85 111.333 118.2 109.533 124.1ZM133.68 138V103.75H146.98C154.48 103.75 157.83 107.7 157.83 112.45C157.83 116.75 155.48 118.6 153.63 119.35C156.18 120.4 159.03 122.9 159.03 127.65C159.03 134.25 154.03 138 146.73 138H133.68ZM140.53 117.2H145.78C149.38 117.2 151.03 116.05 151.03 113.15C151.03 110.35 149.13 109.05 146.13 109.05H140.53V117.2ZM140.53 122.5V132.75H146.23C149.43 132.75 151.88 131.2 151.88 127.65C151.88 124.3 149.93 122.5 145.73 122.5H140.53ZM186.338 117.25V123.05H171.438V132.25H187.888L187.038 138H164.638V103.75H186.988V109.5H171.438V117.25H186.338ZM199.994 138V109.5H190.744V103.75H216.344V109.5H207.044V138H199.994ZM220.888 138V103.75H227.888V117.25H240.388V103.75H247.388V138H240.388V123.05H227.888V138H220.888ZM20.9 179.85H9.55L7.15 188H0.3C0.75 186.65 10.25 155.25 10.75 153.75H19.8L30.8 188H23.5L20.9 179.85ZM10.9 174.1H19.5C17.4 167.15 15.9 162.25 15.1 159.05H15.05C14.25 162.85 12.7 168.2 10.9 174.1ZM41.3977 188H35.0477V153.75H43.9477C54.1477 174.6 55.7977 178 56.2977 179.65H56.3977C56.0477 175.55 55.9977 169.95 55.9977 164.35V153.75H62.3977V188H53.8477C42.8977 165.05 41.6977 162.3 41.1977 161H41.1477C41.3977 165.35 41.3977 171.25 41.3977 177.4V188ZM76.4098 188V159.5H67.1598V153.75H92.7598V159.5H83.4598V188H76.4098ZM110.988 179.85H99.6379L97.2379 188H90.3879C90.8379 186.65 100.338 155.25 100.838 153.75H109.888L120.888 188H113.588L110.988 179.85ZM100.988 174.1H109.588C107.488 167.15 105.988 162.25 105.188 159.05H105.138C104.338 162.85 102.788 168.2 100.988 174.1ZM136.636 173.85H131.986V188H125.136V153.75H139.086C145.536 153.75 150.186 156.95 150.186 163C150.186 167.7 147.736 169.9 144.836 171C148.236 172.35 149.486 175 149.486 179.25V180.15C149.486 183.2 149.636 186.1 149.936 188H143.186C142.686 186.55 142.536 184.25 142.536 180.05V179.15C142.536 175.2 141.136 173.85 136.636 173.85ZM131.986 159.3V168.3H137.186C140.536 168.3 143.286 167.4 143.286 163.6C143.286 160.45 140.986 159.3 138.186 159.3H131.986ZM162.738 188V159.5H153.488V153.75H179.088V159.5H169.788V188H162.738ZM183.632 153.75H190.632V188H183.632V153.75ZM218.325 177.2H225.225C224.275 183 220.375 188.5 211.625 188.5C200.825 188.5 196.925 180.65 196.925 170.85C196.925 161.2 201.875 153.3 211.875 153.3C221.125 153.3 224.675 159.2 225.025 164.5H218.175C217.475 161.7 216.375 158.9 211.675 158.9C205.975 158.9 204.075 164.65 204.075 170.85C204.075 177.35 205.875 182.95 211.725 182.95C216.325 182.95 217.675 179.75 218.325 177.2ZM248 179.85H236.65L234.25 188H227.4C227.85 186.65 237.35 155.25 237.85 153.75H246.9L257.9 188H250.6L248 179.85ZM238 174.1H246.6C244.5 167.15 243 162.25 242.2 159.05H242.15C241.35 162.85 239.8 168.2 238 174.1Z" fill="white" fill-opacity="0.7"/>
</svg>
