<svg width="159" height="22" viewBox="0 0 159 22" fill="none" xmlns="http://www.w3.org/2000/svg">
<circle cx="150" cy="9" r="9" fill="#0074F0"/>
<circle cx="150" cy="9" r="3" fill="white"/>
<rect width="112" height="22" rx="5" fill="#0074F0"/>
<path d="M8.74 13.165H10.495C10.18 14.305 9.415 16.18 7.15 16.18C4.975 16.18 4.015 14.485 4.855 10.615C5.47 7.795 6.655 5.68 8.92 5.68C11.185 5.68 11.515 7.405 11.38 8.59H9.655C9.67 8.08 9.745 7.15 8.74 7.15C7.75 7.15 7.09 8.545 6.64 10.705C6.1 13.24 6.16 14.695 7.315 14.695C8.185 14.695 8.62 13.63 8.74 13.165ZM15.7291 5.68C18.0841 5.68 18.9091 7.51 18.0841 11.38C17.3641 14.74 16.0141 16.18 14.1391 16.18C11.6341 16.18 11.0641 13.96 11.8291 10.465C12.4891 7.42 13.8091 5.68 15.7291 5.68ZM15.6841 7.18C14.6791 7.18 14.0491 8.485 13.5691 10.69C13.0891 12.985 13.0591 14.68 14.2441 14.68C15.1741 14.68 15.7441 13.765 16.3291 11.185C16.8391 8.89 16.9891 7.18 15.6841 7.18ZM20.1673 16H18.5323L20.6923 5.845H22.7323C23.5573 11.065 23.7823 12.715 23.8273 13.285H23.8423C24.0223 12.07 24.3823 10.285 24.7423 8.62L25.3273 5.845H26.9323L24.7723 16H22.8373C22.0423 10.69 21.8023 8.725 21.7423 8.14H21.7273C21.5323 9.385 21.1873 11.215 20.7973 13.045L20.1673 16ZM31.2254 13.165H32.9804C32.6654 14.305 31.9004 16.18 29.6354 16.18C27.4604 16.18 26.5004 14.485 27.3404 10.615C27.9554 7.795 29.1404 5.68 31.4054 5.68C33.6704 5.68 34.0004 7.405 33.8654 8.59H32.1404C32.1554 8.08 32.2304 7.15 31.2254 7.15C30.2354 7.15 29.5754 8.545 29.1254 10.705C28.5854 13.24 28.6454 14.695 29.8004 14.695C30.6704 14.695 31.1054 13.63 31.2254 13.165ZM39.7594 9.91L39.4294 11.44H36.1444L35.5144 14.47H39.3694L38.8144 16H33.4444L35.6044 5.845H40.7644L40.4194 7.39H36.9994L36.4744 9.91H39.7594ZM40.0362 16L42.1962 5.845H44.5812C46.9062 5.845 47.8212 7.315 47.3712 9.4C46.9512 11.32 45.5412 11.995 43.8462 11.995H42.6462L41.8062 16H40.0362ZM43.6512 7.315L42.9762 10.525H43.9662C44.9262 10.525 45.5112 10.09 45.7062 9.085C45.9012 8.035 45.5262 7.315 44.4912 7.315H43.6512ZM48.4164 16L50.2464 7.39H48.1464L48.4764 5.845H54.4464L54.1164 7.39H52.0164L50.1864 16H48.4164ZM58.7787 14.575C59.3487 14.575 59.6937 14.305 60.2187 13.63L58.9287 11.575C58.2537 12.07 57.9687 12.475 57.8787 13.045C57.7437 13.795 57.9537 14.575 58.7787 14.575ZM62.8437 9.925H64.6887L62.0937 13.495L63.6987 16H61.7037L61.0137 14.89C60.2787 15.73 59.6187 16.12 58.4787 16.12C56.7237 16.12 55.8387 14.74 56.1987 13.09C56.4237 12.01 56.8587 11.425 58.2687 10.495C57.7737 9.595 57.5487 8.815 57.7737 7.735C58.0587 6.43 58.9137 5.725 60.1887 5.725C61.9137 5.725 62.6187 7.225 62.2887 8.5C62.0187 9.505 61.5837 9.85 60.3087 10.675L61.2687 12.175L62.8437 9.925ZM60.1287 7.045C59.6937 7.045 59.4087 7.33 59.2887 7.885C59.1687 8.485 59.3037 8.95 59.6637 9.625C60.4437 9.085 60.6537 8.8 60.8037 8.23C60.9537 7.57 60.7137 7.045 60.1287 7.045ZM67.4434 16L69.6034 5.845H71.7334C74.5684 5.845 75.3784 7.96 74.6884 11.29C74.0284 14.5 72.8284 16 70.2334 16H67.4434ZM71.0584 7.285L69.5134 14.59H69.9934C71.4634 14.59 72.3184 14.065 72.8884 11.23C73.5034 8.17 73.0534 7.285 71.4184 7.285H71.0584ZM81.4049 9.91L81.0749 11.44H77.7899L77.1599 14.47H81.0149L80.4599 16H75.0899L77.2499 5.845H82.4099L82.0649 7.39H78.6449L78.1199 9.91H81.4049ZM81.9339 13.24H83.6289C83.6289 13.885 83.8539 14.74 84.8439 14.74C85.5039 14.74 85.9539 14.365 86.0889 13.66C86.2239 12.91 86.0139 12.28 84.9189 11.41C83.3889 10.195 82.8489 9.28 83.0889 7.945C83.3139 6.655 84.2139 5.68 85.8639 5.68C88.4289 5.68 88.6389 7.705 88.5789 8.47H86.8839C86.8839 8.065 86.8089 7.105 85.8039 7.105C85.1889 7.105 84.8589 7.48 84.7539 8.05C84.6489 8.65 84.8289 9.085 85.9839 9.955C87.7539 11.305 88.1439 12.355 87.8139 13.9C87.5289 15.145 86.5839 16.18 84.8439 16.18C82.2789 16.18 81.8439 14.44 81.9339 13.24ZM90.7411 5.845H92.5111L90.3511 16H88.5811L90.7411 5.845ZM99.2218 10.36L98.0218 16H96.6268C96.6418 15.79 96.7018 15.4 96.7468 15.145C96.2668 15.88 95.5918 16.18 94.7368 16.18C92.8018 16.18 92.1568 14.23 92.8768 10.72C93.6418 7.03 95.1568 5.68 96.9718 5.68C99.4618 5.68 99.5968 7.78 99.5518 8.41H97.7968C97.7968 8.11 97.8718 7.15 96.8518 7.15C95.8768 7.15 95.1118 8.38 94.6318 10.81C94.1518 13.27 94.2118 14.71 95.4118 14.71C96.4018 14.71 96.7768 13.795 97.0318 12.52L97.1668 11.89H95.8318L96.1618 10.36H99.2218ZM101.202 16H99.5675L101.727 5.845H103.767C104.592 11.065 104.817 12.715 104.862 13.285H104.877C105.057 12.07 105.417 10.285 105.777 8.62L106.362 5.845H107.967L105.807 16H103.872C103.077 10.69 102.837 8.725 102.777 8.14H102.762C102.567 9.385 102.222 11.215 101.832 13.045L101.202 16Z" fill="white"/>
<path d="M141 9.5L111.828 13.5L111.828 5.5L141 9.5Z" fill="#0074F0"/>
</svg>
