<svg width="110" height="111" viewBox="0 0 110 111" fill="none" xmlns="http://www.w3.org/2000/svg">
<circle cx="18" cy="20" r="9" fill="#0074F0"/>
<circle cx="18.0001" cy="20.0001" r="2.7931" fill="white"/>
<rect y="58" width="84" height="53" rx="5" fill="#0074F0"/>
<path d="M10.952 74.842H13.526C13.064 76.514 11.942 79.264 8.62 79.264C5.43 79.264 4.022 76.778 5.254 71.102C6.156 66.966 7.894 63.864 11.216 63.864C14.538 63.864 15.022 66.394 14.824 68.132H12.294C12.316 67.384 12.426 66.02 10.952 66.02C9.5 66.02 8.532 68.066 7.872 71.234C7.08 74.952 7.168 77.086 8.862 77.086C10.138 77.086 10.776 75.524 10.952 74.842ZM21.2026 63.864C24.6566 63.864 25.8666 66.548 24.6566 72.224C23.6006 77.152 21.6206 79.264 18.8706 79.264C15.1966 79.264 14.3606 76.008 15.4826 70.882C16.4506 66.416 18.3866 63.864 21.2026 63.864ZM21.1366 66.064C19.6626 66.064 18.7386 67.978 18.0346 71.212C17.3306 74.578 17.2866 77.064 19.0246 77.064C20.3886 77.064 21.2246 75.722 22.0826 71.938C22.8306 68.572 23.0506 66.064 21.1366 66.064ZM27.712 79H25.314L28.482 64.106H31.474C32.684 71.762 33.014 74.182 33.08 75.018H33.102C33.366 73.236 33.894 70.618 34.422 68.176L35.28 64.106H37.634L34.466 79H31.628C30.462 71.212 30.11 68.33 30.022 67.472H30C29.714 69.298 29.208 71.982 28.636 74.666L27.712 79ZM43.9305 74.842H46.5045C46.0425 76.514 44.9205 79.264 41.5985 79.264C38.4085 79.264 37.0005 76.778 38.2325 71.102C39.1345 66.966 40.8725 63.864 44.1945 63.864C47.5165 63.864 48.0005 66.394 47.8025 68.132H45.2725C45.2945 67.384 45.4045 66.02 43.9305 66.02C42.4785 66.02 41.5105 68.066 40.8505 71.234C40.0585 74.952 40.1465 77.086 41.8405 77.086C43.1165 77.086 43.7545 75.524 43.9305 74.842ZM56.4471 70.068L55.9631 72.312H51.1451L50.2211 76.756H55.8751L55.0611 79H47.1851L50.3531 64.106H57.9211L57.4151 66.372H52.3991L51.6291 70.068H56.4471ZM56.8531 79L60.0211 64.106H63.5191C66.9291 64.106 68.2711 66.262 67.6111 69.32C66.9951 72.136 64.9271 73.126 62.4411 73.126H60.6811L59.4491 79H56.8531ZM62.1551 66.262L61.1651 70.97H62.6171C64.0251 70.97 64.8831 70.332 65.1691 68.858C65.4551 67.318 64.9051 66.262 63.3871 66.262H62.1551ZM69.1441 79L71.8281 66.372H68.7481L69.2321 64.106H77.9881L77.5041 66.372H74.4241L71.7401 79H69.1441ZM8.18 102.91C9.016 102.91 9.522 102.514 10.292 101.524L8.4 98.51C7.41 99.236 6.992 99.83 6.86 100.666C6.662 101.766 6.97 102.91 8.18 102.91ZM14.142 96.09H16.848L13.042 101.326L15.396 105H12.47L11.458 103.372C10.38 104.604 9.412 105.176 7.74 105.176C5.166 105.176 3.868 103.152 4.396 100.732C4.726 99.148 5.364 98.29 7.432 96.926C6.706 95.606 6.376 94.462 6.706 92.878C7.124 90.964 8.378 89.93 10.248 89.93C12.778 89.93 13.812 92.13 13.328 94C12.932 95.474 12.294 95.98 10.424 97.19L11.832 99.39L14.142 96.09ZM10.16 91.866C9.522 91.866 9.104 92.284 8.928 93.098C8.752 93.978 8.95 94.66 9.478 95.65C10.622 94.858 10.93 94.44 11.15 93.604C11.37 92.636 11.018 91.866 10.16 91.866ZM20.8883 105L24.0563 90.106H27.1803C31.3383 90.106 32.5263 93.208 31.5143 98.092C30.5463 102.8 28.7863 105 24.9803 105H20.8883ZM26.1903 92.218L23.9243 102.932H24.6283C26.7843 102.932 28.0383 102.162 28.8743 98.004C29.7763 93.516 29.1163 92.218 26.7183 92.218H26.1903ZM41.3651 96.068L40.8811 98.312H36.0631L35.1391 102.756H40.7931L39.9791 105H32.1031L35.2711 90.106H42.8391L42.3331 92.372H37.3171L36.5471 96.068H41.3651ZM42.141 100.952H44.627C44.627 101.898 44.957 103.152 46.409 103.152C47.377 103.152 48.037 102.602 48.235 101.568C48.433 100.468 48.125 99.544 46.519 98.268C44.275 96.486 43.483 95.144 43.835 93.186C44.165 91.294 45.485 89.864 47.905 89.864C51.667 89.864 51.975 92.834 51.887 93.956H49.401C49.401 93.362 49.291 91.954 47.817 91.954C46.915 91.954 46.431 92.504 46.277 93.34C46.123 94.22 46.387 94.858 48.081 96.134C50.677 98.114 51.249 99.654 50.765 101.92C50.347 103.746 48.961 105.264 46.409 105.264C42.647 105.264 42.009 102.712 42.141 100.952ZM55.0582 90.106H57.6542L54.4862 105H51.8902L55.0582 90.106ZM67.4965 96.728L65.7365 105H63.6905C63.7125 104.692 63.8005 104.12 63.8665 103.746C63.1625 104.824 62.1725 105.264 60.9185 105.264C58.0805 105.264 57.1345 102.404 58.1905 97.256C59.3125 91.844 61.5345 89.864 64.1965 89.864C67.8485 89.864 68.0465 92.944 67.9805 93.868H65.4065C65.4065 93.428 65.5165 92.02 64.0205 92.02C62.5905 92.02 61.4685 93.824 60.7645 97.388C60.0605 100.996 60.1485 103.108 61.9085 103.108C63.3605 103.108 63.9105 101.766 64.2845 99.896L64.4825 98.972H62.5245L63.0085 96.728H67.4965ZM70.4015 105H68.0035L71.1715 90.106H74.1635C75.3735 97.762 75.7035 100.182 75.7695 101.018H75.7915C76.0555 99.236 76.5835 96.618 77.1115 94.176L77.9695 90.106H80.3235L77.1555 105H74.3175C73.1515 97.212 72.7995 94.33 72.7115 93.472H72.6895C72.4035 95.298 71.8975 97.982 71.3255 100.666L70.4015 105Z" fill="white"/>
<path d="M17.5 29L25 63H10L17.5 29Z" fill="#0074F0"/>
</svg>
