<svg width="122" height="122" viewBox="0 0 122 122" fill="none" xmlns="http://www.w3.org/2000/svg">
<path d="M37.4281 110.249C37.4907 110.243 37.4221 110.249 37.4281 110.249Z" stroke="#005EB8" stroke-miterlimit="10"/>
<path d="M37.5062 110.085C37.5689 110.079 37.5002 110.085 37.5062 110.085Z" stroke="#005EB8" stroke-miterlimit="10"/>
<path d="M84.4594 12.0261C84.522 12.0201 84.4533 12.0261 84.4594 12.0261Z" stroke="#005EB8" stroke-miterlimit="10"/>
<path d="M84.5375 11.8582C84.6001 11.8521 84.5314 11.8582 84.5375 11.8582Z" stroke="#005EB8" stroke-miterlimit="10"/>
<path d="M24.9651 69.9176L22.7028 68.0615L20.5533 66.1891L18.5245 64.3067L16.6205 62.4183L14.8474 60.5298L13.211 58.6474L11.7176 56.7771L10.3691 54.925L9.17159 53.095L8.12701 51.2933L7.23942 49.5259L6.51083 47.7968L5.94326 46.1121L5.53871 44.4779L5.29719 42.8961L5.2207 41.3748L5.30926 39.9161L5.56286 38.524L5.97948 37.2045L6.55712 35.9617L7.29578 34.7975L8.19343 33.7161L9.24606 32.7194L10.4496 31.8135L11.8022 30.9984L13.2976 30.2761L14.9339 29.6506L16.7051 29.122L18.605 28.6943L20.6278 28.3654L22.7693 28.1395L25.0214 28.0144L27.3783 27.9922L29.8318 28.0729L32.3758 28.2545L35.0023 28.5369L37.7033 28.9203L40.4708 29.4045L43.2986 29.9856C44.2566 30.2115 45.2167 30.4375 46.1747 30.6635L49.0931 31.4342L52.0457 32.2977L55.0225 33.25L58.0133 34.2891L61.0122 35.4109L64.0091 36.6133L66.9939 37.8925L69.9586 39.2443L72.895 40.6646L75.7953 42.1496L78.6493 43.6951L81.4489 45.295L84.1862 46.9474L86.853 48.6442L89.4413 50.3834L91.9431 52.1588L94.3522 53.9646L96.6608 55.7945L98.8606 57.6447L100.948 59.5089L102.914 61.3832L104.754 63.2616L106.463 65.138L108.034 67.0063L109.465 68.8604L110.75 70.6964L111.885 72.5082L112.867 74.2897L113.692 76.037L114.36 77.7438L114.867 79.4063L115.212 81.0184L115.393 82.576L115.409 84.073L115.262 85.5075L114.952 86.8734L114.477 88.1667L113.841 89.3833L113.046 90.5192L112.092 91.5724L110.983 92.5388L109.723 93.4145L108.314 94.1973L106.762 94.8853L105.072 95.4764L103.246 95.9687L101.292 96.3621L99.2149 96.6527C98.4843 96.7152 97.7516 96.7778 97.021 96.8423C96.2522 96.8706 95.4854 96.8988 94.7165 96.9291L92.3073 96.9109L89.8016 96.7899L87.2072 96.5659L84.5324 96.2391L81.7851 95.8113L78.9713 95.2827L76.1013 94.6553L73.1849 93.931L70.2282 93.1118L67.2434 92.2019L64.2365 91.2012L61.2175 90.1137L58.1964 88.9435L55.1815 87.6946L52.1805 86.369L49.2058 84.9708L46.2633 83.5061L43.363 81.9768L40.5151 80.3889L37.7255 78.7486L35.0043 77.0579L32.3597 75.3248L29.7995 73.5533L27.332 71.7476L24.9631 69.9136L24.9651 69.9176Z" stroke="#005EB8" stroke-miterlimit="10"/>
<path d="M18.847 99.3698C11.6416 93.4482 -5.39777 75.6127 10.7157 69.3138C17.1201 66.81 24.7039 67.6937 31.2712 68.9849C38.2552 70.3589 45.0541 72.7397 51.5248 75.6874C63.6593 81.2176 77.1342 89.3605 84.0477 101.19C87.1533 106.504 88.1838 113.485 82.1075 117.062C76.4016 120.421 68.7373 119.883 62.4597 118.92C48.6527 116.8 35.1819 110.824 23.6955 102.951C22.0351 101.813 20.435 100.603 18.845 99.3698H18.847Z" stroke="#005EB8" stroke-miterlimit="10"/>
<path d="M32.3963 110.856C31.0075 109.75 28.0932 106.968 30.1219 105.179C31.9877 103.536 35.9104 104.882 37.8426 105.63C40.5798 106.692 43.9812 108.51 45.4465 111.209C46.7487 113.61 44.9916 114.871 42.6509 114.889C39.0361 114.917 35.1758 113.057 32.3963 110.854V110.856Z" stroke="#005EB8" stroke-miterlimit="10"/>
<path d="M22.6037 106.965C18.3247 103.446 7.95943 93.9836 14.2068 87.9066C16.8756 85.31 21.2653 85.0457 24.7613 85.1687C30.3726 85.3665 35.9578 86.8938 41.1727 88.9073C50.914 92.6661 62.4749 98.965 67.7421 108.47C69.2214 111.139 70.2539 114.611 68.3036 117.321C66.2265 120.206 62.0804 120.803 58.7977 120.888C47.3778 121.183 35.3902 115.878 26.1319 109.561C24.9243 108.738 23.759 107.861 22.6037 106.965Z" stroke="#005EB8" stroke-miterlimit="10"/>
<path d="M20.0003 83.9718C11.8731 77.2977 -8.83738 57.4305 6.76894 47.6331C13.5114 43.4002 22.7396 43.8905 30.2891 44.8932C39.8675 46.1663 49.2264 49.1281 58.1003 52.905C67.3446 56.8414 76.2064 61.7885 84.2652 67.8049C91.1767 72.9639 97.9413 79.0631 102.297 86.6149C105.493 92.1572 107.369 99.6505 102.098 104.584C96.5928 109.736 87.5317 109.819 80.5055 109.282C61.0247 107.796 41.4736 99.1784 25.5734 88.1059C23.6734 86.7823 21.8318 85.3882 20.0023 83.9718H20.0003Z" stroke="#005EB8" stroke-miterlimit="10"/>
<path d="M36.7254 50.1013C29.8742 44.4924 22.6769 37.8929 19.4948 29.3787C16.7475 22.0307 19.7021 15.4412 27.145 12.8708C35.4232 10.0119 44.9613 11.2406 53.3239 13.0564C61.6866 14.8723 69.8883 17.7957 77.6894 21.3951C85.4906 24.9945 92.8107 29.2496 99.6458 34.3117C106.481 39.3738 114.016 46.0238 118.193 54.0336C121.469 60.3204 122.001 67.9792 115.236 72.0648C107.936 76.4712 97.8424 75.5532 89.838 74.2034C72.6235 71.2981 55.7814 63.7463 41.5498 53.7027C39.9094 52.5446 38.3174 51.328 36.7294 50.1013H36.7254Z" stroke="#005EB8" stroke-miterlimit="10"/>
<path d="M64.8893 21.4295C60.4896 17.8382 49.5285 6.78789 59.3866 2.63368C67.1073 -0.620687 77.6235 3.18852 84.7665 6.34806C92.7086 9.86068 101.818 15.1972 106.25 22.9891C108.071 26.193 108.734 30.3271 105.177 32.5989C102.07 34.5822 97.7765 34.4631 94.2684 34.0677C84.8007 33.0004 75.4237 28.8744 67.6426 23.4653C66.7047 22.8136 65.795 22.1276 64.8913 21.4315L64.8893 21.4295Z" stroke="#005EB8" stroke-miterlimit="10"/>
<path d="M77.0468 14.3001C75.328 12.9402 71.4496 9.39533 73.7561 7.00853C76.119 4.56523 81.6398 6.47588 84.1959 7.4645C87.8932 8.89699 92.3915 11.312 94.4082 14.9195C96.0807 17.9116 94.0037 19.6245 90.9967 19.6951C86.0979 19.8121 80.8146 17.272 77.0468 14.3001Z" stroke="#005EB8" stroke-miterlimit="10"/>
<path d="M47.9777 36.2717C40.565 30.2109 22.5314 11.5805 39.3413 5.10807C46.0294 2.53161 53.9312 3.48189 60.7763 4.84578C68.1105 6.30652 75.2555 8.81438 82.0483 11.9255C94.7624 17.7462 109.024 26.2887 116.181 38.7735C119.388 44.3643 120.209 51.454 113.81 55.0232C107.847 58.3502 99.939 57.7449 93.4542 56.7078C78.983 54.3937 64.8862 48.1392 52.8423 39.861C51.1799 38.719 49.5737 37.5065 47.9757 36.2737L47.9777 36.2717Z" stroke="#005EB8" stroke-miterlimit="10"/>
<path d="M54.1341 85.7492C49.67 95.0462 45.3226 104.813 39.4597 113.34C38.7955 114.304 38.0005 115.769 36.8372 116.144C36.8029 116.138 36.7707 116.134 36.7365 116.128L36.65 116.08C35.857 114.649 36.9921 111.514 37.5134 110.091C37.0908 111.596 35.9375 114.419 36.7305 115.896C36.7587 115.912 36.7868 115.928 36.817 115.944C36.8512 115.95 36.8834 115.954 36.9177 115.961C38.2541 115.527 39.2 113.675 39.9387 112.557C41.2872 110.519 42.4988 108.387 43.6863 106.252C47.4782 99.4345 50.9239 92.4213 54.2911 85.386C58.5278 76.5288 62.5874 67.5869 66.502 58.5844C70.3121 49.822 73.9872 40.9991 77.4551 32.0955C79.8642 25.9096 82.2211 19.6732 84.107 13.3037C84.2499 12.8215 84.3767 12.3373 84.5477 11.8672C82.372 19.6954 79.3691 27.3118 76.3903 34.8596C72.053 45.8494 67.4118 56.7202 62.5813 67.5021C59.8401 73.6195 57.0243 79.7025 54.1341 85.7512V85.7492Z" stroke="#005EB8" stroke-miterlimit="10"/>
<path d="M84.8278 95.0906C80.9815 103.006 75.8774 110.796 68.6378 115.987C62.2837 120.544 54.1525 122.51 46.8968 118.864C43.0365 116.925 39.9148 113.765 37.4473 110.259C37.4734 110.204 37.4996 110.15 37.5258 110.093C42.5796 117.272 50.4794 122.199 59.4599 120.111C68.2815 118.061 75.0924 110.86 79.9088 103.556C85.6268 94.8868 89.4006 84.9321 91.7272 74.8381C94.0257 64.8672 94.9314 54.525 94.2894 44.31C93.6493 34.1191 91.4918 23.5712 86.2205 14.712C85.6751 13.796 85.0934 12.9022 84.4776 12.0326L84.5561 11.8672C91.061 21.0109 93.599 32.6503 94.3578 43.6744C95.1166 54.6985 94.0257 66.4772 91.1999 77.4569C89.6381 83.5238 87.5248 89.4373 84.8237 95.0886L84.8278 95.0906Z" stroke="#005EB8" stroke-miterlimit="10"/>
<path d="M107.933 93.414C103.127 103.088 95.7061 111.219 85.8278 115.805C76.0925 120.325 64.9483 121.035 54.6192 118.291C48.4524 116.653 42.7364 113.812 37.4551 110.259C37.4812 110.204 37.5074 110.15 37.5336 110.093C46.7396 116.275 57.4209 120.115 68.6053 119.705C79.1477 119.318 89.35 115.174 97.0928 107.977C105.256 100.391 110.401 89.9034 112.405 79.0004C114.585 67.143 113.114 54.7409 108.855 43.507C104.596 32.2731 97.435 22.1246 88.0237 14.6454C86.8744 13.7335 85.6869 12.876 84.4874 12.0326C84.5135 11.9782 84.5397 11.9217 84.5679 11.8672C94.4824 18.8218 102.31 28.2903 107.313 39.3427C112.317 50.393 114.559 62.8274 113.194 74.9188C112.468 81.3549 110.666 87.5529 107.935 93.414H107.933Z" stroke="#005EB8" stroke-miterlimit="10"/>
<path d="M115.891 81.8532C110.851 92.2256 102.392 100.637 92.3548 106.187C81.744 112.054 69.4787 114.851 57.3825 114.298C50.5535 113.987 43.8855 112.561 37.459 110.257C37.4851 110.202 37.5113 110.148 37.5375 110.091C48.9916 114.215 61.3092 115.293 73.2746 112.928C85.24 110.563 96.0944 105.185 104.687 96.8903C112.739 89.1165 118.437 78.8248 120.152 67.7039C121.833 56.8069 119.494 45.6174 113.957 36.1246C108.15 26.1678 99.0269 18.4566 88.5891 13.7254C87.2406 13.1141 85.87 12.5653 84.4893 12.0326L84.5678 11.8672C95.5027 16.1021 105.31 22.9821 112.027 32.7311C118.296 41.8304 121.593 52.8988 120.774 63.9714C120.315 70.1815 118.616 76.2645 115.889 81.8552L115.891 81.8532Z" stroke="#005EB8" stroke-miterlimit="10"/>
<path d="M106.597 63.4027C101.346 74.0737 93.8443 83.4655 84.8094 91.1707C75.9174 98.7548 65.5118 104.898 54.2428 108.118C48.8066 109.672 43.1127 110.509 37.4551 110.249C37.4812 110.195 37.5074 110.14 37.5336 110.084C48.1122 110.56 58.6265 107.301 67.9351 102.451C78.6184 96.8845 88.2088 89.0502 95.8832 79.7572C102.94 71.2127 108.69 61.1087 111.103 50.2076C112.991 41.6793 112.669 32.2612 108.006 24.6408C103.636 17.5026 96.0281 13.4734 87.8989 12.3476C86.7657 12.1903 85.6266 12.0934 84.4854 12.0248L84.5639 11.8594C92.9406 12.3678 101.233 15.376 106.54 22.1753C111.924 29.0734 113.154 38.2312 111.91 46.7011C111.055 52.5238 109.094 58.0964 106.595 63.4027H106.597Z" stroke="#005EB8" stroke-miterlimit="10"/>
<path d="M82.6279 44.8496C77.4996 55.5348 71.6286 65.8769 65.2363 75.8519C59.474 84.8483 53.3092 93.7156 46.2145 101.717C43.5115 104.766 40.6716 107.74 37.4473 110.242L37.5258 110.076C43.1371 105.746 47.7502 100.077 52.0915 94.5206C58.3449 86.5209 63.9925 78.0188 69.2557 69.3351C74.5188 60.6514 79.5767 51.3785 83.9341 41.9907C87.2068 34.9392 90.3586 27.6356 92.1278 20.0373C92.7436 17.3903 93.6091 13.9604 92.6531 11.3012C91.5984 8.36359 88.6881 9.36431 86.5949 10.5829C85.8603 11.0107 85.1578 11.503 84.4796 12.0154L84.5581 11.85C86.1481 10.6354 89.0363 8.43219 91.2059 9.29168C93.4219 10.1693 93.1804 13.5387 93.0013 15.4514C92.4538 21.3024 90.254 27.0828 88.0943 32.4959C86.4258 36.6804 84.5822 40.7943 82.6259 44.8516L82.6279 44.8496Z" stroke="#005EB8" stroke-miterlimit="10"/>
<path d="M52.0954 30.9023C47.4561 40.7219 43.7709 50.9733 41.0015 61.4768C38.3749 71.4356 36.4729 81.6749 35.9517 91.9747C35.6457 98.0335 35.7363 104.373 37.437 110.234C37.4632 110.179 37.4893 110.125 37.5155 110.068C35.048 101.48 35.7081 91.9222 36.8091 83.1558C37.91 74.3894 39.967 64.8865 42.5995 56.0132C45.2321 47.1398 48.5349 38.3654 52.6066 30.0085C56.4146 22.1944 60.933 14.0555 67.3837 8.11367C72.7777 3.14435 79.8361 1.31642 83.4107 9.14466C83.8333 10.0727 84.1715 11.0331 84.4693 12.0076L84.5478 11.8422C82.8934 6.41688 79.1297 1.54239 72.993 4.10473C66.1761 6.94952 61.3738 14.3843 57.6906 20.4633C55.6437 23.8428 53.8102 27.3413 52.0934 30.9003L52.0954 30.9023Z" stroke="#005EB8" stroke-miterlimit="10"/>
<path d="M23.9553 27.3044C18.9517 37.9028 16.9391 49.8711 17.3637 61.5428C17.7965 73.3941 20.6947 85.3503 26.3986 95.7833C29.3271 101.14 33.0083 106.029 37.4281 110.237C37.4543 110.183 37.4805 110.128 37.5066 110.072C29.3653 102.355 23.8566 92.2545 20.7209 81.5331C17.3194 69.9077 16.5244 57.4249 18.5331 45.4727C20.3747 34.5092 24.6456 23.6162 31.8691 15.0718C37.9615 7.86493 46.3564 2.5607 55.8381 1.49945C65.1548 0.456356 74.2803 3.78336 81.5582 9.52541C82.5585 10.3143 83.5165 11.1536 84.4604 12.0111C84.4866 11.9566 84.5128 11.9001 84.5389 11.8456C77.4744 5.39743 68.5663 0.940577 58.8451 1.10602C49.1238 1.27146 40.6062 5.70813 34.0629 12.4005C29.8504 16.71 26.4812 21.8387 23.9553 27.3044Z" stroke="#005EB8" stroke-miterlimit="10"/>
<path d="M7.79844 33.6644C2.57151 45.0193 1.49674 57.6635 4.62042 69.7711C7.4744 80.8335 13.5145 90.982 21.6879 98.9232C26.3574 103.461 31.6749 107.201 37.4211 110.238L37.4996 110.072C27.5026 104.76 18.8662 97.2304 12.6993 87.6731C6.43586 77.9665 2.81907 66.4622 3.0304 54.8652C3.26186 42.2694 8.17683 29.9359 16.8817 20.8184C25.1115 12.1992 36.3503 6.94545 48.0883 5.37577C59.0956 3.90293 70.3948 5.71674 80.5508 10.1534C81.8731 10.7304 83.1633 11.368 84.4534 12.0116L84.5319 11.8462C74.5168 6.84861 63.5658 4.12487 52.337 4.77453C41.1083 5.42419 29.3744 9.61068 20.4985 17.1383C15.1125 21.7041 10.9141 27.3392 7.79844 33.6623V33.6644Z" stroke="#005EB8" stroke-miterlimit="10"/>
<path d="M8.03502 49.8175C3.64939 59.1165 1.9366 69.9025 4.42226 79.9723C6.90792 90.0421 12.8172 97.949 21.0591 103.425C26.0324 106.732 31.6297 108.896 37.4242 110.244L37.5027 110.079C27.4695 107.767 18.0441 102.711 11.6438 94.4707C5.50106 86.5638 2.77187 76.5041 3.62725 66.5594C4.57724 55.503 9.64517 45.0217 16.6513 36.5518C24.3478 27.2467 34.5662 20.1145 45.7426 15.6496C56.6433 11.2937 68.6751 9.47985 80.3265 11.2392C81.7132 11.449 83.0879 11.7194 84.4565 12.018C84.4826 11.9635 84.5088 11.907 84.535 11.8525C73.0164 9.31037 61.0027 10.2687 49.8404 13.9771C38.2232 17.8367 27.4473 24.5492 19.0826 33.5295C14.6104 38.3334 10.7642 43.8272 8.03704 49.8154L8.03502 49.8175Z" stroke="#005EB8" stroke-miterlimit="10"/>
</svg>
