<svg width="596" height="596" viewBox="0 0 596 596" fill="none" xmlns="http://www.w3.org/2000/svg">
<path d="M146.834 220.055C146.984 220.195 146.944 220.165 146.834 220.055Z" stroke="#0074F0" stroke-miterlimit="10"/>
<path d="M147.334 220.324C147.484 220.464 147.444 220.434 147.334 220.324Z" stroke="#0074F0" stroke-miterlimit="10"/>
<path d="M447.584 377.207C447.734 377.347 447.694 377.317 447.584 377.207Z" stroke="#0074F0" stroke-miterlimit="10"/>
<path d="M448.094 377.477C448.244 377.617 448.204 377.587 448.094 377.477Z" stroke="#0074F0" stroke-miterlimit="10"/>
<path d="M146.834 220.066C146.984 220.196 146.954 220.166 146.834 220.066Z" stroke="#0074F0" stroke-miterlimit="10"/>
<path d="M147.334 220.324C147.484 220.454 147.454 220.424 147.334 220.324Z" stroke="#0074F0" stroke-miterlimit="10"/>
<path d="M447.574 377.215C447.724 377.345 447.694 377.315 447.574 377.215Z" stroke="#0074F0" stroke-miterlimit="10"/>
<path d="M448.084 377.477C448.234 377.607 448.204 377.577 448.084 377.477Z" stroke="#0074F0" stroke-miterlimit="10"/>
<path d="M102.775 136.967L112.655 124.058L123.075 111.668L134.005 99.8278L145.405 88.5779L157.255 77.9479L169.505 67.978L182.125 58.6881L195.075 50.1182L208.315 42.2883L221.805 35.2183L235.505 28.9284L249.375 23.4385L263.375 18.7685L277.465 14.9285C282.175 13.9285 286.885 12.9285 291.595 11.9286C296.305 11.2086 301.015 10.4986 305.725 9.77858C310.425 9.34858 315.125 8.91859 319.815 8.48859C324.485 8.34859 329.155 8.19859 333.825 8.05859C338.455 8.19859 343.085 8.34859 347.715 8.48859L361.435 9.77858C365.935 10.4986 370.445 11.2086 374.945 11.9286L388.205 14.9285L401.185 18.7685L413.835 23.4385L426.125 28.9184L438.015 35.1983L449.465 42.2583L460.445 50.0682L470.925 58.6181L480.875 67.868L490.265 77.798L499.065 88.3779L507.245 99.5778L514.785 111.368L521.665 123.708L527.855 136.557L533.345 149.877L538.125 163.637L542.175 177.787L545.475 192.287L548.025 207.097L549.815 222.167L550.845 237.456L551.105 252.916L550.595 268.506L549.325 284.176L547.285 299.886L544.495 315.586L540.955 331.226L536.675 346.755L531.675 362.135L525.965 377.325L519.565 392.275L512.485 406.935L504.755 421.265L496.395 435.225L487.425 448.775L477.885 461.874L467.785 474.484L457.165 486.564L446.065 498.074L434.505 508.984L422.525 519.264L410.155 528.884L397.435 537.814L384.405 546.024L371.095 553.494L357.555 560.204L343.825 566.123L329.935 571.243L315.935 575.543L301.865 579.013C297.165 579.893 292.465 580.763 287.765 581.643C283.065 582.233 278.375 582.833 273.675 583.423L259.645 584.353C254.995 584.373 250.355 584.403 245.705 584.423C241.105 584.163 236.505 583.893 231.905 583.633L218.285 581.983L204.885 579.483L191.745 576.143L178.905 571.963L166.405 566.963L154.275 561.153L142.555 554.554L131.285 547.184L120.495 539.064L110.215 530.214L100.485 520.664L91.3246 510.444L82.7646 499.584L74.8346 488.114L67.5546 476.064L60.9446 463.474L55.0246 450.385L49.8146 436.835L45.3346 422.865L41.5946 408.515L38.6046 393.825L36.3746 378.835L34.9146 363.605L34.2246 348.165L34.3146 332.576L35.1746 316.876L36.8046 301.106L39.2046 285.326L42.3646 269.576L46.2746 253.906L50.9246 238.366L56.2946 222.997L62.3746 207.847L69.1446 192.957L76.5846 178.377L84.6746 164.157L93.3946 150.327L102.705 136.937L102.775 136.967Z" stroke="#0074F0" stroke-miterlimit="10"/>
<path d="M54.9451 127.108C105.955 60.4683 191.535 10.4388 277.185 38.2885C363.975 66.5083 400.705 161.537 388.455 246.347C377.225 324.086 330.285 397.495 261.225 436.245C183.265 479.984 83.5751 467.225 33.4251 388.805C-11.9749 317.796 -1.84488 222.347 38.9851 151.807C43.9151 143.298 49.3251 135.178 54.9451 127.108Z" stroke="#0074F0" stroke-miterlimit="10"/>
<path d="M120.054 197.118C142.234 166.878 189.434 175.518 187.214 216.808C185.524 248.188 142.204 284.948 117.164 251.468C105.214 235.488 108.974 212.428 120.064 197.118H120.054Z" stroke="#0074F0" stroke-miterlimit="10"/>
<path d="M70.6539 149.287C105.414 103.887 162.864 70.0275 221.384 87.2774C279.904 104.527 305.174 161.467 302.204 216.656C298.914 277.766 262.374 337.605 207.344 365.515C157.594 390.755 95.7339 383.405 61.0239 337.225C24.5639 288.726 30.0439 220.016 58.1039 169.037C61.8839 162.177 66.1939 155.697 70.6639 149.277L70.6539 149.287Z" stroke="#0074F0" stroke-miterlimit="10"/>
<path d="M69.1836 122.767C132.094 40.5876 235.134 -20.7818 341.384 8.35794C447.374 37.4277 498.894 146.957 491.994 250.226C484.704 359.355 419.194 466.034 321.354 516.873C227.504 565.643 110.314 550.553 47.2636 460.694C-14.9464 372.025 -4.13643 249.386 46.6036 158.237C53.4436 145.947 61.1536 134.317 69.1836 122.777V122.767Z" stroke="#0074F0" stroke-miterlimit="10"/>
<path d="M175.245 179.086C205.595 139.436 242.265 105.597 287.575 83.7067C335.235 60.677 390.475 52.217 442.065 66.0969C497.655 81.0568 542.465 121.216 567.235 172.606C588.865 217.476 595.285 268.535 589.785 317.775C584.145 368.154 566.105 417.144 538.535 459.643C510.965 502.143 475.015 537.463 431.525 562.112C385.375 588.262 331.315 600.942 278.565 591.892C222.885 582.342 174.875 547.852 145.855 499.783C119.945 456.863 109.635 406.084 111.915 356.334C114.255 305.355 129.535 255.285 154.745 210.986C161.015 199.956 168.015 189.496 175.255 179.086H175.245Z" stroke="#0074F0" stroke-miterlimit="10"/>
<path d="M339.124 291.986C371.124 250.147 423.844 218.857 477.834 234.677C531.824 250.497 556.794 308.136 551.494 360.936C546.194 413.735 514.694 463.975 467.984 489.325C419.594 515.584 358.344 507.904 326.574 460.245C296.614 415.315 302.694 354.576 328.134 309.166C331.464 303.216 335.224 297.586 339.114 291.986H339.124Z" stroke="#0074F0" stroke-miterlimit="10"/>
<path d="M407.184 344.113C420.234 326.374 443.114 313.404 465.484 319.994C487.244 326.404 497.904 348.843 496.714 370.303C494.404 411.903 436.704 461.612 403.294 416.833C387.304 395.413 392.374 364.653 407.194 344.113H407.184Z" stroke="#0074F0" stroke-miterlimit="10"/>
<path d="M241.944 222.666C294.754 153.636 383.204 100.977 472.274 128.807C563.454 157.296 602.924 255.465 591.004 344.495C580.154 425.604 532.154 502.233 461.204 544.073C380.074 591.912 273.344 580.693 219.914 497.943C171.674 423.234 182.274 322.755 225.334 248.366C230.464 239.506 236.104 231.066 241.944 222.666Z" stroke="#0074F0" stroke-miterlimit="10"/>
<path d="M41.8441 294.486C28.0241 287.176 -10.2559 267.106 4.21413 246.246C17.5741 226.976 54.9241 224.727 75.4941 222.607C99.1741 220.177 123.034 219.767 146.814 220.117C146.984 220.207 147.154 220.297 147.314 220.377C109.524 219.817 68.9741 219.667 32.4741 230.886C10.1241 237.756 -9.02587 253.716 12.9241 274.596C37.2441 297.716 74.0241 309.786 105.074 320.286C155.814 337.445 208.394 349.295 261.114 358.515C316.284 368.165 372.164 374.735 428.164 376.755C434.624 376.985 441.094 377.145 447.554 377.255C447.724 377.345 447.894 377.435 448.064 377.525C389.694 376.495 331.444 370.415 273.864 360.905C217.864 351.655 161.974 339.445 108.054 321.566C85.4241 314.066 63.0041 305.506 41.8441 294.476V294.486Z" stroke="#0074F0" stroke-miterlimit="10"/>
<path d="M57.9345 451.024C25.6045 433.744 9.21446 402.464 17.4845 366.254C26.3645 327.415 54.8845 294.325 83.5545 268.115C103.134 250.206 124.574 234.596 146.814 220.176L147.314 220.436C106.704 246.696 66.9545 278.005 39.9545 318.725C19.0245 350.295 4.18446 393.784 29.8845 427.094C55.9845 460.914 105.774 468.903 145.764 470.013C196.664 471.423 247.914 461.624 296.424 446.804C343.594 432.394 389.184 412.414 431.554 387.194C436.934 383.994 442.244 380.664 447.544 377.334C447.714 377.424 447.884 377.514 448.054 377.604C401.204 407.184 350.674 430.634 297.684 446.954C245.154 463.124 188.984 473.693 133.844 470.083C107.844 468.383 81.0945 463.434 57.9145 451.044L57.9345 451.024Z" stroke="#0074F0" stroke-miterlimit="10"/>
<path d="M150.554 559.054C115.824 540.324 97.674 503.824 90.954 466.245C81.804 415.125 90.574 361.276 106.304 312.346C116.604 280.296 130.544 249.627 146.854 220.207L147.354 220.467C119.464 270.987 98.144 325.806 90.794 383.316C85.154 427.445 86.624 476.665 109.084 516.344C127.264 548.464 159.444 568.564 196.444 570.084C241.504 571.934 285.184 550.074 320.784 524.364C367.414 490.685 405.714 445.835 435.904 397.145C439.944 390.625 443.794 383.996 447.604 377.346C447.774 377.436 447.944 377.526 448.114 377.616C419.064 428.805 382.174 476.165 336.254 513.354C300.554 542.274 256.674 567.724 209.804 570.804C189.334 572.154 168.804 568.574 150.554 559.044V559.054Z" stroke="#0074F0" stroke-miterlimit="10"/>
<path d="M288.284 583.691C242.714 559.202 213.324 509.522 193.094 463.643C171.874 415.503 158.514 363.904 151.714 311.814C147.744 281.404 146.314 250.865 146.884 220.215C147.054 220.305 147.224 220.395 147.384 220.475C146.284 268.854 150.914 317.274 161.464 364.523C171.504 409.483 186.634 453.913 208.824 494.402C230.614 534.162 262.584 577.892 308.294 590.991C359.424 605.641 398.144 564.392 418.004 521.962C436.484 482.482 444.134 438.223 446.824 395.003C447.194 389.123 447.424 383.253 447.634 377.363C447.804 377.453 447.974 377.543 448.144 377.633C446.594 417.463 441.824 457.213 429.274 495.212C416.664 533.402 393.624 577.602 352.934 591.331C331.204 598.661 308.114 594.431 288.274 583.701L288.284 583.691Z" stroke="#0074F0" stroke-miterlimit="10"/>
<path d="M429.613 518.531C388.533 496.781 352.533 465.261 319.163 433.302C275.973 391.932 236.323 346.662 200.413 298.873C181.353 273.523 163.333 247.343 146.943 220.184L147.443 220.444C174.193 264.913 205.313 306.843 238.663 346.562C272.253 386.572 308.393 424.812 347.803 459.171C376.053 483.801 406.713 508.571 441.353 523.661C453.543 528.981 470.053 535.361 483.263 529.931C497.993 523.871 498.473 505.621 496.753 492.171C492.263 457.071 474.023 423.102 456.743 392.832C453.773 387.632 450.743 382.472 447.683 377.322C447.853 377.412 448.023 377.502 448.193 377.592C465.923 407.412 483.373 438.672 492.973 472.221C499.023 493.381 505.363 532.721 472.543 532.551C457.583 532.471 442.613 525.331 429.613 518.531Z" stroke="#0074F0" stroke-miterlimit="10"/>
<path d="M527.035 382.873C485.135 361.073 442.015 341.553 398.815 322.484C344.205 298.374 289.115 275.344 233.625 253.334C204.885 241.934 176.055 230.664 146.975 220.145C212.935 246.954 279.775 271.414 345.325 299.354C403.845 324.294 462.285 349.903 518.965 378.833C529.635 384.283 540.275 389.833 550.625 395.863C557.495 399.863 568.705 404.713 572.425 412.153C572.425 412.313 572.445 412.483 572.445 412.643C572.395 412.783 572.355 412.923 572.305 413.063C572.205 413.183 572.105 413.293 571.995 413.413C561.615 417.493 542.905 409.243 532.935 406.293C516.475 401.423 500.215 395.903 484.005 390.273C471.865 386.053 459.795 381.683 447.715 377.303C481.845 391.343 518.715 404.193 554.785 412.293C560.235 413.513 567.515 415.943 572.925 413.803L573.235 413.453C573.285 413.313 573.325 413.173 573.375 413.033C573.375 412.873 573.355 412.703 573.345 412.543C566.545 398.853 539.975 389.613 527.025 382.883L527.035 382.873Z" stroke="#0074F0" stroke-miterlimit="10"/>
<path d="M553.364 221.368C506.964 197.568 451.444 191.378 400.004 189.248C344.884 186.968 289.414 190.768 235.024 199.848C205.254 204.818 175.964 211.698 146.984 220.098C147.154 220.188 147.324 220.278 147.484 220.358C192.044 207.318 237.614 198.478 283.784 193.588C329.664 188.728 376.124 187.388 422.154 190.928C466.404 194.328 513.434 201.158 553.184 221.988C588.524 240.508 607.454 273.217 578.644 307.217C550.104 340.887 503.394 359.067 462.464 372.567C457.564 374.176 452.654 375.746 447.724 377.246L448.234 377.516C482.864 366.967 517.584 353.917 548.014 334.007C571.874 318.397 605.054 289.797 592.084 257.458C585.344 240.658 568.804 229.428 553.374 221.378L553.364 221.368Z" stroke="#0074F0" stroke-miterlimit="10"/>
<path d="M495.925 82.8569C458.195 64.1871 412.865 67.8871 373.295 78.017C318.955 91.9269 268.085 119.187 223.105 152.266C195.655 172.456 170.335 195.266 146.975 220.036L147.475 220.296C188.575 176.896 235.865 139.376 288.985 111.667C333.325 88.5469 383.615 70.2171 434.265 70.5071C470.215 70.7171 508.395 82.1069 529.865 112.797C552.235 144.756 550.115 187.216 540.325 223.196C526.425 274.255 496.795 320.475 462.685 360.404C457.815 366.104 452.785 371.654 447.715 377.184C447.885 377.274 448.055 377.364 448.225 377.454C485.465 336.965 518.655 290.655 536.485 238.156C548.965 201.386 555.235 157.556 536.445 121.717C527.535 104.737 513.095 91.2969 495.935 82.8469L495.925 82.8569Z" stroke="#0074F0" stroke-miterlimit="10"/>
<path d="M377.534 13.5997C338.814 -6.08009 296.244 5.01981 262.694 29.6896C224.054 58.0993 196.184 99.7489 175.814 142.549C163.934 167.498 154.564 193.478 146.934 220.018C147.104 220.108 147.274 220.198 147.434 220.278C161.814 170.528 182.424 121.799 213.794 80.2291C240.004 45.4894 276.854 10.9298 321.874 4.92981C366.894 -1.07014 404.824 26.9496 427.554 63.6093C454.334 106.809 464.544 159.478 467.224 209.568C469.894 259.447 464.544 309.797 452.654 358.277C451.104 364.606 449.404 370.886 447.684 377.166C447.854 377.256 448.024 377.346 448.194 377.436C462.094 326.047 469.864 273.307 468.264 219.988C466.684 167.528 457.144 112.129 430.134 66.3392C417.384 44.7294 400.064 25.2796 377.544 13.5997H377.534Z" stroke="#0074F0" stroke-miterlimit="10"/>
<path d="M230.084 33.3662C206.404 21.4263 176.674 16.7164 156.754 37.9562C133.414 62.8259 132.044 103.816 133.594 135.745C134.974 164.205 140.134 192.395 146.884 220.024L147.384 220.284C136.654 176.455 128.374 128.505 137.104 83.5657C142.174 57.476 155.764 28.2262 185.164 24.2463C218.394 19.7563 251.514 44.7761 274.614 65.4559C314.234 100.906 345.524 145.715 371.944 191.515C401.844 243.344 425.854 298.924 442.144 356.503C444.084 363.363 445.864 370.253 447.614 377.163C447.784 377.253 447.954 377.343 448.124 377.433C433.504 319.224 411.274 263.064 382.824 210.215C356.604 161.505 325.214 113.985 285.574 75.0458C269.104 58.866 250.854 43.6961 230.064 33.3562L230.084 33.3662Z" stroke="#0074F0" stroke-miterlimit="10"/>
</svg>
