<svg width="187" height="76" viewBox="0 0 187 76" fill="none" xmlns="http://www.w3.org/2000/svg">
<circle cx="18" cy="67" r="9" fill="#0074F0"/>
<circle cx="18" cy="67" r="3" fill="white"/>
<rect width="187" height="27" rx="5" fill="#0074F0"/>
<path d="M9.412 14.554H8.004L6.662 21H4.066L7.234 6.106H11.216C14.582 6.106 15.638 8.218 15.066 10.726C14.582 12.794 13.284 13.388 12.382 13.652C13.35 14.136 13.856 15.148 13.416 17.37C13.064 19.24 12.888 20.142 12.844 21H10.358C10.336 20.34 10.512 19.152 10.886 17.348C11.282 15.302 10.974 14.554 9.412 14.554ZM9.368 8.24L8.466 12.442H9.72C11.172 12.442 12.14 12.09 12.448 10.594C12.734 9.23 12.206 8.24 10.666 8.24H9.368ZM24.1561 12.068L23.6721 14.312H18.8541L17.9301 18.756H23.5841L22.7701 21H14.8941L18.0621 6.106H25.6301L25.1241 8.372H20.1081L19.3381 12.068H24.1561ZM26.9601 21H24.5621L27.7301 6.106H30.7221C31.9321 13.762 32.2621 16.182 32.3281 17.018H32.3501C32.6141 15.236 33.1421 12.618 33.6701 10.176L34.5281 6.106H36.8821L33.7141 21H30.8761C29.7101 13.212 29.3581 10.33 29.2701 9.472H29.2481C28.9621 11.298 28.4561 13.982 27.8841 16.666L26.9601 21ZM45.662 12.068L45.178 14.312H40.36L39.436 18.756H45.09L44.276 21H36.4L39.568 6.106H47.136L46.63 8.372H41.614L40.844 12.068H45.662ZM50.4858 21H47.9338L48.3738 6.106H50.9258C50.7278 9.582 50.4198 14.708 50.0898 17.326H50.1118C51.0798 14.664 53.2358 9.428 54.5778 6.106H56.8658C56.7338 9.23 56.6018 14.51 56.3818 17.37H56.4258C57.3718 14.29 59.4618 8.944 60.4298 6.106H63.0038L56.9098 21H54.3578C54.4458 18.822 54.5118 13.432 54.7318 10.528H54.6878C53.8738 12.992 51.6738 18.118 50.4858 21ZM67.2354 17.194H63.7374L62.1754 21H59.5574L65.9814 6.106H69.4794L69.7654 21H67.2354V17.194ZM64.6394 14.994H67.1914C67.1694 12.178 67.2134 9.582 67.2794 8.152H67.2134C66.7734 9.56 65.7834 12.068 64.6394 14.994ZM71.0328 21L74.2008 6.106H78.0068C81.0428 6.106 82.2528 8.13 81.7468 10.572C81.3948 12.31 80.2948 13.014 79.3488 13.322C80.4928 13.872 81.3068 15.104 80.9548 17.15C80.5148 19.592 78.6668 21 75.7848 21H71.0328ZM75.0148 14.158L74.0248 18.932H75.6968C76.9728 18.932 78.1828 18.448 78.4248 16.666C78.6228 15.148 78.0508 14.158 76.0928 14.158H75.0148ZM75.4768 12.09H76.7748C78.3148 12.09 79.0848 11.54 79.2828 10.374C79.5028 9.076 79.0848 8.218 77.4788 8.218H76.2688L75.4768 12.09ZM81.9683 21L85.1363 6.106H87.7323L85.0483 18.756H90.1083L89.4043 21H81.9683ZM100.211 12.068L99.7268 14.312H94.9088L93.9848 18.756H99.6388L98.8248 21H90.9488L94.1168 6.106H101.685L101.179 8.372H96.1628L95.3928 12.068H100.211ZM113.918 12.068L113.434 14.312H108.616L107.692 18.756H113.346L112.532 21H104.656L107.824 6.106H115.392L114.886 8.372H109.87L109.1 12.068H113.918ZM116.722 21H114.324L117.492 6.106H120.484C121.694 13.762 122.024 16.182 122.09 17.018H122.112C122.376 15.236 122.904 12.618 123.432 10.176L124.29 6.106H126.644L123.476 21H120.638C119.472 13.212 119.12 10.33 119.032 9.472H119.01C118.724 11.298 118.218 13.982 117.646 16.666L116.722 21ZM135.424 12.068L134.94 14.312H130.122L129.198 18.756H134.852L134.038 21H126.162L129.33 6.106H136.898L136.392 8.372H131.376L130.606 12.068H135.424ZM141.176 14.554H139.768L138.426 21H135.83L138.998 6.106H142.98C146.346 6.106 147.402 8.218 146.83 10.726C146.346 12.794 145.048 13.388 144.146 13.652C145.114 14.136 145.62 15.148 145.18 17.37C144.828 19.24 144.652 20.142 144.608 21H142.122C142.1 20.34 142.276 19.152 142.65 17.348C143.046 15.302 142.738 14.554 141.176 14.554ZM141.132 8.24L140.23 12.442H141.484C142.936 12.442 143.904 12.09 144.212 10.594C144.498 9.23 143.97 8.24 142.43 8.24H141.132ZM157.108 12.728L155.348 21H153.302C153.324 20.692 153.412 20.12 153.478 19.746C152.774 20.824 151.784 21.264 150.53 21.264C147.692 21.264 146.746 18.404 147.802 13.256C148.924 7.844 151.146 5.864 153.808 5.864C157.46 5.864 157.658 8.944 157.592 9.868H155.018C155.018 9.428 155.128 8.02 153.632 8.02C152.202 8.02 151.08 9.824 150.376 13.388C149.672 16.996 149.76 19.108 151.52 19.108C152.972 19.108 153.522 17.766 153.896 15.896L154.094 14.972H152.136L152.62 12.728H157.108ZM160.783 6.106H163.379L160.211 21H157.615L160.783 6.106ZM172.141 12.068L171.657 14.312H166.839L165.915 18.756H171.569L170.755 21H162.879L166.046 6.106H173.615L173.109 8.372H168.093L167.323 12.068H172.141ZM172.916 16.952H175.402C175.402 17.898 175.732 19.152 177.184 19.152C178.152 19.152 178.812 18.602 179.01 17.568C179.208 16.468 178.9 15.544 177.294 14.268C175.05 12.486 174.258 11.144 174.61 9.186C174.94 7.294 176.26 5.864 178.68 5.864C182.442 5.864 182.75 8.834 182.662 9.956H180.176C180.176 9.362 180.066 7.954 178.592 7.954C177.69 7.954 177.206 8.504 177.052 9.34C176.898 10.22 177.162 10.858 178.856 12.134C181.452 14.114 182.024 15.654 181.54 17.92C181.122 19.746 179.736 21.264 177.184 21.264C173.422 21.264 172.784 18.712 172.916 16.952Z" fill="white"/>
<path d="M17.5 58L10 24L25 24L17.5 58Z" fill="#0074F0"/>
</svg>
