<svg width="130" height="58" viewBox="0 0 130 58" fill="none" xmlns="http://www.w3.org/2000/svg">
<circle cx="18" cy="49" r="9" fill="#0074F0"/>
<circle cx="18" cy="49" r="3" fill="white"/>
<rect width="130" height="22" rx="5" fill="#0074F0"/>
<path d="M7.69 11.605H6.73L5.815 16H4.045L6.205 5.845H8.92C11.215 5.845 11.935 7.285 11.545 8.995C11.215 10.405 10.33 10.81 9.715 10.99C10.375 11.32 10.72 12.01 10.42 13.525C10.18 14.8 10.06 15.415 10.03 16H8.335C8.32 15.55 8.44 14.74 8.695 13.51C8.965 12.115 8.755 11.605 7.69 11.605ZM7.66 7.3L7.045 10.165H7.9C8.89 10.165 9.55 9.925 9.76 8.905C9.955 7.975 9.595 7.3 8.545 7.3H7.66ZM17.7428 9.91L17.4128 11.44H14.1278L13.4978 14.47H17.3528L16.7978 16H11.4278L13.5878 5.845H18.7478L18.4028 7.39H14.9828L14.4578 9.91H17.7428ZM19.6546 16H18.0196L20.1796 5.845H22.2196C23.0446 11.065 23.2696 12.715 23.3146 13.285H23.3296C23.5096 12.07 23.8696 10.285 24.2296 8.62L24.8146 5.845H26.4196L24.2596 16H22.3246C21.5296 10.69 21.2896 8.725 21.2296 8.14H21.2146C21.0196 9.385 20.6746 11.215 20.2846 13.045L19.6546 16ZM32.4059 9.91L32.0759 11.44H28.7909L28.1609 14.47H32.0159L31.4609 16H26.0909L28.2509 5.845H33.4109L33.0659 7.39H29.6459L29.1209 9.91H32.4059ZM35.6949 16H33.9549L34.2549 5.845H35.9949C35.8599 8.215 35.6499 11.71 35.4249 13.495H35.4399C36.0999 11.68 37.5699 8.11 38.4849 5.845H40.0449C39.9549 7.975 39.8649 11.575 39.7149 13.525H39.7449C40.3899 11.425 41.8149 7.78 42.4749 5.845H44.2299L40.0749 16H38.3349C38.3949 14.515 38.4399 10.84 38.5899 8.86H38.5599C38.0049 10.54 36.5049 14.035 35.6949 16ZM47.115 13.405H44.73L43.665 16H41.88L46.26 5.845H48.645L48.84 16H47.115V13.405ZM45.345 11.905H47.085C47.07 9.985 47.1 8.215 47.145 7.24H47.1C46.8 8.2 46.125 9.91 45.345 11.905ZM49.7042 16L51.8642 5.845H54.4592C56.5292 5.845 57.3542 7.225 57.0092 8.89C56.7692 10.075 56.0192 10.555 55.3742 10.765C56.1542 11.14 56.7092 11.98 56.4692 13.375C56.1692 15.04 54.9092 16 52.9442 16H49.7042ZM52.4192 11.335L51.7442 14.59H52.8842C53.7542 14.59 54.5792 14.26 54.7442 13.045C54.8792 12.01 54.4892 11.335 53.1542 11.335H52.4192ZM52.7342 9.925H53.6192C54.6692 9.925 55.1942 9.55 55.3292 8.755C55.4792 7.87 55.1942 7.285 54.0992 7.285H53.2742L52.7342 9.925ZM57.1602 16L59.3202 5.845H61.0902L59.2602 14.47H62.7102L62.2302 16H57.1602ZM69.5983 9.91L69.2683 11.44H65.9833L65.3533 14.47H69.2083L68.6533 16H63.2833L65.4433 5.845H70.6033L70.2583 7.39H66.8383L66.3133 9.91H69.5983ZM78.944 9.91L78.614 11.44H75.329L74.699 14.47H78.554L77.999 16H72.629L74.789 5.845H79.949L79.604 7.39H76.184L75.659 9.91H78.944ZM80.8558 16H79.2208L81.3808 5.845H83.4208C84.2458 11.065 84.4708 12.715 84.5158 13.285H84.5308C84.7108 12.07 85.0708 10.285 85.4308 8.62L86.0158 5.845H87.6208L85.4608 16H83.5258C82.7308 10.69 82.4908 8.725 82.4308 8.14H82.4158C82.2208 9.385 81.8758 11.215 81.4858 13.045L80.8558 16ZM93.6071 9.91L93.2771 11.44H89.9921L89.3621 14.47H93.2171L92.6621 16H87.2921L89.4521 5.845H94.6121L94.2671 7.39H90.8471L90.3221 9.91H93.6071ZM97.5289 11.605H96.5689L95.6539 16H93.8839L96.0439 5.845H98.7589C101.054 5.845 101.774 7.285 101.384 8.995C101.054 10.405 100.169 10.81 99.5539 10.99C100.214 11.32 100.559 12.01 100.259 13.525C100.019 14.8 99.8989 15.415 99.8689 16H98.1739C98.1589 15.55 98.2789 14.74 98.5339 13.51C98.8039 12.115 98.5939 11.605 97.5289 11.605ZM97.4989 7.3L96.8839 10.165H97.7389C98.7289 10.165 99.3889 9.925 99.5989 8.905C99.7939 7.975 99.4339 7.3 98.3839 7.3H97.4989ZM108.392 10.36L107.192 16H105.797C105.812 15.79 105.872 15.4 105.917 15.145C105.437 15.88 104.762 16.18 103.907 16.18C101.972 16.18 101.327 14.23 102.047 10.72C102.812 7.03 104.327 5.68 106.142 5.68C108.632 5.68 108.767 7.78 108.722 8.41H106.967C106.967 8.11 107.042 7.15 106.022 7.15C105.047 7.15 104.282 8.38 103.802 10.81C103.322 13.27 103.382 14.71 104.582 14.71C105.572 14.71 105.947 13.795 106.202 12.52L106.337 11.89H105.002L105.332 10.36H108.392ZM110.897 5.845H112.667L110.507 16H108.737L110.897 5.845ZM118.641 9.91L118.311 11.44H115.026L114.396 14.47H118.251L117.696 16H112.326L114.486 5.845H119.646L119.301 7.39H115.881L115.356 9.91H118.641ZM119.17 13.24H120.865C120.865 13.885 121.09 14.74 122.08 14.74C122.74 14.74 123.19 14.365 123.325 13.66C123.46 12.91 123.25 12.28 122.155 11.41C120.625 10.195 120.085 9.28 120.325 7.945C120.55 6.655 121.45 5.68 123.1 5.68C125.665 5.68 125.875 7.705 125.815 8.47H124.12C124.12 8.065 124.045 7.105 123.04 7.105C122.425 7.105 122.095 7.48 121.99 8.05C121.885 8.65 122.065 9.085 123.22 9.955C124.99 11.305 125.38 12.355 125.05 13.9C124.765 15.145 123.82 16.18 122.08 16.18C119.515 16.18 119.08 14.44 119.17 13.24Z" fill="white"/>
<path d="M18 40L14 22L22 22L18 40Z" fill="#0074F0"/>
</svg>
