<svg width="254" height="27" viewBox="0 0 254 27" fill="none" xmlns="http://www.w3.org/2000/svg">
<circle cx="9" cy="14" r="9" fill="#0074F0"/>
<circle cx="9" cy="14" r="3" fill="white"/>
<rect x="52" width="202" height="27" rx="5" fill="#0074F0"/>
<path d="M56.066 21L59.234 6.106H61.83L59.146 18.756H64.206L63.502 21H56.066ZM68.2145 6.106H70.8105L67.6425 21H65.0465L68.2145 6.106ZM75.4607 21H72.5787L72.1167 6.106H74.6907L74.6687 12.552C74.6467 14.532 74.6687 16.666 74.5807 18.162H74.6247C75.0867 16.798 76.0327 14.51 76.8687 12.552L79.6627 6.106H82.3027L75.4607 21ZM83.7047 6.106H86.3007L83.1327 21H80.5367L83.7047 6.106ZM88.1984 21H85.8004L88.9684 6.106H91.9604C93.1704 13.762 93.5004 16.182 93.5664 17.018H93.5884C93.8524 15.236 94.3804 12.618 94.9084 10.176L95.7664 6.106H98.1204L94.9524 21H92.1144C90.9484 13.212 90.5964 10.33 90.5084 9.472H90.4864C90.2004 11.298 89.6944 13.982 89.1224 16.666L88.1984 21ZM107.981 12.728L106.221 21H104.175C104.197 20.692 104.285 20.12 104.351 19.746C103.647 20.824 102.657 21.264 101.403 21.264C98.5648 21.264 97.6188 18.404 98.6748 13.256C99.7968 7.844 102.019 5.864 104.681 5.864C108.333 5.864 108.531 8.944 108.465 9.868H105.891C105.891 9.428 106.001 8.02 104.505 8.02C103.075 8.02 101.953 9.824 101.249 13.388C100.545 16.996 100.633 19.108 102.393 19.108C103.845 19.108 104.395 17.766 104.769 15.896L104.967 14.972H103.009L103.493 12.728H107.981ZM119.085 17.194H115.587L114.025 21H111.407L117.831 6.106H121.329L121.615 21H119.085V17.194ZM116.489 14.994H119.041C119.019 12.178 119.063 9.582 119.129 8.152H119.063C118.623 9.56 117.633 12.068 116.489 14.994ZM128.228 14.554H126.82L125.478 21H122.882L126.05 6.106H130.032C133.398 6.106 134.454 8.218 133.882 10.726C133.398 12.794 132.1 13.388 131.198 13.652C132.166 14.136 132.672 15.148 132.232 17.37C131.88 19.24 131.704 20.142 131.66 21H129.174C129.152 20.34 129.328 19.152 129.702 17.348C130.098 15.302 129.79 14.554 128.228 14.554ZM128.184 8.24L127.282 12.442H128.536C129.988 12.442 130.956 12.09 131.264 10.594C131.55 9.23 131.022 8.24 129.482 8.24H128.184ZM142.973 12.068L142.489 14.312H137.671L136.747 18.756H142.401L141.587 21H133.711L136.879 6.106H144.447L143.941 8.372H138.925L138.155 12.068H142.973ZM150.646 17.194H147.148L145.586 21H142.968L149.392 6.106H152.89L153.176 21H150.646V17.194ZM148.05 14.994H150.602C150.58 12.178 150.624 9.582 150.69 8.152H150.624C150.184 9.56 149.194 12.068 148.05 14.994ZM154.705 16.952H157.191C157.191 17.898 157.521 19.152 158.973 19.152C159.941 19.152 160.601 18.602 160.799 17.568C160.997 16.468 160.689 15.544 159.083 14.268C156.839 12.486 156.047 11.144 156.399 9.186C156.729 7.294 158.049 5.864 160.469 5.864C164.231 5.864 164.539 8.834 164.451 9.956H161.965C161.965 9.362 161.855 7.954 160.381 7.954C159.479 7.954 158.995 8.504 158.841 9.34C158.687 10.22 158.951 10.858 160.645 12.134C163.241 14.114 163.813 15.654 163.329 17.92C162.911 19.746 161.525 21.264 158.973 21.264C155.211 21.264 154.573 18.712 154.705 16.952ZM172.522 18.91C173.358 18.91 173.864 18.514 174.634 17.524L172.742 14.51C171.752 15.236 171.334 15.83 171.202 16.666C171.004 17.766 171.312 18.91 172.522 18.91ZM178.484 12.09H181.19L177.384 17.326L179.738 21H176.812L175.8 19.372C174.722 20.604 173.754 21.176 172.082 21.176C169.508 21.176 168.21 19.152 168.738 16.732C169.068 15.148 169.706 14.29 171.774 12.926C171.048 11.606 170.718 10.462 171.048 8.878C171.466 6.964 172.72 5.93 174.59 5.93C177.12 5.93 178.154 8.13 177.67 10C177.274 11.474 176.636 11.98 174.766 13.19L176.174 15.39L178.484 12.09ZM174.502 7.866C173.864 7.866 173.446 8.284 173.27 9.098C173.094 9.978 173.292 10.66 173.82 11.65C174.964 10.858 175.272 10.44 175.492 9.604C175.712 8.636 175.36 7.866 174.502 7.866ZM192.226 5.864C195.68 5.864 196.89 8.548 195.68 14.224C194.624 19.152 192.644 21.264 189.894 21.264C186.22 21.264 185.384 18.008 186.506 12.882C187.474 8.416 189.41 5.864 192.226 5.864ZM192.16 8.064C190.686 8.064 189.762 9.978 189.058 13.212C188.354 16.578 188.31 19.064 190.048 19.064C191.412 19.064 192.248 17.722 193.106 13.938C193.854 10.572 194.074 8.064 192.16 8.064ZM196.337 21L199.505 6.106H207.205L206.699 8.372H201.573L200.781 12.178H205.621L205.137 14.422H200.297L198.911 21H196.337ZM205.576 21L208.744 6.106H216.444L215.938 8.372H210.812L210.02 12.178H214.86L214.376 14.422H209.536L208.15 21H205.576ZM217.982 6.106H220.578L217.41 21H214.814L217.982 6.106ZM226.856 16.842H229.43C228.968 18.514 227.846 21.264 224.524 21.264C221.334 21.264 219.926 18.778 221.158 13.102C222.06 8.966 223.798 5.864 227.12 5.864C230.442 5.864 230.926 8.394 230.728 10.132H228.198C228.22 9.384 228.33 8.02 226.856 8.02C225.404 8.02 224.436 10.066 223.776 13.234C222.984 16.952 223.072 19.086 224.766 19.086C226.042 19.086 226.68 17.524 226.856 16.842ZM239.373 12.068L238.889 14.312H234.071L233.147 18.756H238.801L237.987 21H230.111L233.279 6.106H240.847L240.341 8.372H235.325L234.555 12.068H239.373ZM240.149 16.952H242.635C242.635 17.898 242.965 19.152 244.417 19.152C245.385 19.152 246.045 18.602 246.243 17.568C246.441 16.468 246.133 15.544 244.527 14.268C242.283 12.486 241.491 11.144 241.843 9.186C242.173 7.294 243.493 5.864 245.913 5.864C249.675 5.864 249.983 8.834 249.895 9.956H247.409C247.409 9.362 247.299 7.954 245.825 7.954C244.923 7.954 244.439 8.504 244.285 9.34C244.131 10.22 244.395 10.858 246.089 12.134C248.685 14.114 249.257 15.654 248.773 17.92C248.355 19.746 246.969 21.264 244.417 21.264C240.655 21.264 240.017 18.712 240.149 16.952Z" fill="white"/>
<path d="M18 13.5L52 6L52 21L18 13.5Z" fill="#0074F0"/>
</svg>
