<svg width="117" height="40" viewBox="0 0 117 40" fill="none" xmlns="http://www.w3.org/2000/svg">
<circle cx="9" cy="12" r="9" fill="#0074F0"/>
<circle cx="9" cy="12" r="3" fill="white"/>
<rect x="35" width="82" height="40" rx="5" fill="#0074F0"/>
<path d="M39.045 16L41.205 5.845H42.975L41.145 14.47H44.595L44.115 16H39.045ZM47.328 5.845H49.098L46.938 16H45.168L47.328 5.845ZM52.2687 16H50.3037L49.9887 5.845H51.7437L51.7287 10.24C51.7137 11.59 51.7287 13.045 51.6687 14.065H51.6987C52.0137 13.135 52.6587 11.575 53.2287 10.24L55.1337 5.845H56.9337L52.2687 16ZM57.8896 5.845H59.6596L57.4996 16H55.7296L57.8896 5.845ZM60.9534 16H59.3184L61.4784 5.845H63.5184C64.3434 11.065 64.5684 12.715 64.6134 13.285H64.6284C64.8084 12.07 65.1684 10.285 65.5284 8.62L66.1134 5.845H67.7184L65.5584 16H63.6234C62.8284 10.69 62.5884 8.725 62.5284 8.14H62.5134C62.3184 9.385 61.9734 11.215 61.5834 13.045L60.9534 16ZM74.4415 10.36L73.2415 16H71.8465C71.8615 15.79 71.9215 15.4 71.9665 15.145C71.4865 15.88 70.8115 16.18 69.9565 16.18C68.0215 16.18 67.3765 14.23 68.0965 10.72C68.8615 7.03 70.3765 5.68 72.1915 5.68C74.6815 5.68 74.8165 7.78 74.7715 8.41H73.0165C73.0165 8.11 73.0915 7.15 72.0715 7.15C71.0965 7.15 70.3315 8.38 69.8515 10.81C69.3715 13.27 69.4315 14.71 70.6315 14.71C71.6215 14.71 71.9965 13.795 72.2515 12.52L72.3865 11.89H71.0515L71.3815 10.36H74.4415ZM82.0125 13.405H79.6275L78.5625 16H76.7775L81.1575 5.845H83.5425L83.7375 16H82.0125V13.405ZM80.2425 11.905H81.9825C81.9675 9.985 81.9975 8.215 82.0425 7.24H81.9975C81.6975 8.2 81.0225 9.91 80.2425 11.905ZM88.2466 11.605H87.2866L86.3716 16H84.6016L86.7616 5.845H89.4766C91.7716 5.845 92.4916 7.285 92.1016 8.995C91.7716 10.405 90.8866 10.81 90.2716 10.99C90.9316 11.32 91.2766 12.01 90.9766 13.525C90.7366 14.8 90.6166 15.415 90.5866 16H88.8916C88.8766 15.55 88.9966 14.74 89.2516 13.51C89.5216 12.115 89.3116 11.605 88.2466 11.605ZM88.2166 7.3L87.6016 10.165H88.4566C89.4466 10.165 90.1066 9.925 90.3166 8.905C90.5116 7.975 90.1516 7.3 89.1016 7.3H88.2166ZM98.2995 9.91L97.9695 11.44H94.6845L94.0545 14.47H97.9095L97.3545 16H91.9845L94.1445 5.845H99.3045L98.9595 7.39H95.5395L95.0145 9.91H98.2995ZM103.531 13.405H101.146L100.081 16H98.2961L102.676 5.845H105.061L105.256 16H103.531V13.405ZM101.761 11.905H103.501C103.486 9.985 103.516 8.215 103.561 7.24H103.516C103.216 8.2 102.541 9.91 101.761 11.905ZM106.299 13.24H107.994C107.994 13.885 108.219 14.74 109.209 14.74C109.869 14.74 110.319 14.365 110.454 13.66C110.589 12.91 110.379 12.28 109.284 11.41C107.754 10.195 107.214 9.28 107.454 7.945C107.679 6.655 108.579 5.68 110.229 5.68C112.794 5.68 113.004 7.705 112.944 8.47H111.249C111.249 8.065 111.174 7.105 110.169 7.105C109.554 7.105 109.224 7.48 109.119 8.05C109.014 8.65 109.194 9.085 110.349 9.955C112.119 11.305 112.509 12.355 112.179 13.9C111.894 15.145 110.949 16.18 109.209 16.18C106.644 16.18 106.209 14.44 106.299 13.24ZM41.85 32.575C42.42 32.575 42.765 32.305 43.29 31.63L42 29.575C41.325 30.07 41.04 30.475 40.95 31.045C40.815 31.795 41.025 32.575 41.85 32.575ZM45.915 27.925H47.76L45.165 31.495L46.77 34H44.775L44.085 32.89C43.35 33.73 42.69 34.12 41.55 34.12C39.795 34.12 38.91 32.74 39.27 31.09C39.495 30.01 39.93 29.425 41.34 28.495C40.845 27.595 40.62 26.815 40.845 25.735C41.13 24.43 41.985 23.725 43.26 23.725C44.985 23.725 45.69 25.225 45.36 26.5C45.09 27.505 44.655 27.85 43.38 28.675L44.34 30.175L45.915 27.925ZM43.2 25.045C42.765 25.045 42.48 25.33 42.36 25.885C42.24 26.485 42.375 26.95 42.735 27.625C43.515 27.085 43.725 26.8 43.875 26.23C44.025 25.57 43.785 25.045 43.2 25.045ZM55.2847 23.68C57.6397 23.68 58.4647 25.51 57.6397 29.38C56.9197 32.74 55.5697 34.18 53.6947 34.18C51.1897 34.18 50.6197 31.96 51.3847 28.465C52.0447 25.42 53.3647 23.68 55.2847 23.68ZM55.2397 25.18C54.2347 25.18 53.6047 26.485 53.1247 28.69C52.6447 30.985 52.6147 32.68 53.7997 32.68C54.7297 32.68 55.2997 31.765 55.8847 29.185C56.3947 26.89 56.5447 25.18 55.2397 25.18ZM58.088 34L60.248 23.845H65.498L65.153 25.39H61.658L61.118 27.985H64.418L64.088 29.515H60.788L59.843 34H58.088ZM64.3868 34L66.5468 23.845H71.7968L71.4518 25.39H67.9568L67.4168 27.985H70.7168L70.3868 29.515H67.0868L66.1418 34H64.3868ZM72.8456 23.845H74.6156L72.4556 34H70.6856L72.8456 23.845ZM78.8963 31.165H80.6513C80.3363 32.305 79.5713 34.18 77.3063 34.18C75.1313 34.18 74.1713 32.485 75.0113 28.615C75.6263 25.795 76.8113 23.68 79.0763 23.68C81.3413 23.68 81.6713 25.405 81.5363 26.59H79.8113C79.8263 26.08 79.9013 25.15 78.8963 25.15C77.9062 25.15 77.2463 26.545 76.7963 28.705C76.2563 31.24 76.3163 32.695 77.4713 32.695C78.3413 32.695 78.7763 31.63 78.8963 31.165ZM87.4303 27.91L87.1003 29.44H83.8153L83.1853 32.47H87.0403L86.4853 34H81.1153L83.2753 23.845H88.4353L88.0903 25.39H84.6703L84.1453 27.91H87.4303ZM87.9593 31.24H89.6543C89.6543 31.885 89.8793 32.74 90.8693 32.74C91.5293 32.74 91.9793 32.365 92.1143 31.66C92.2493 30.91 92.0393 30.28 90.9443 29.41C89.4143 28.195 88.8743 27.28 89.1143 25.945C89.3393 24.655 90.2393 23.68 91.8893 23.68C94.4543 23.68 94.6643 25.705 94.6043 26.47H92.9093C92.9093 26.065 92.8343 25.105 91.8293 25.105C91.2143 25.105 90.8843 25.48 90.7793 26.05C90.6743 26.65 90.8543 27.085 92.0093 27.955C93.7793 29.305 94.1693 30.355 93.8393 31.9C93.5543 33.145 92.6093 34.18 90.8693 34.18C88.3043 34.18 87.8693 32.44 87.9593 31.24Z" fill="white"/>
<path d="M17 12.5L35 8.5L35 16.5L17 12.5Z" fill="#0074F0"/>
</svg>
