<svg width="64" height="61" viewBox="0 0 64 61" fill="none" xmlns="http://www.w3.org/2000/svg">
<path d="M25.3559 35.2312C25.3381 35.1009 25.2315 35.0002 25.1012 35.0002C25.1012 35.0002 25.0953 35.0002 25.0894 35.0002C24.6155 35.0239 24.1239 34.9765 23.6323 34.8699C23.502 34.8403 23.3776 34.9055 23.3243 35.018C21.8258 38.5658 20.9019 42.2972 20.582 46.1116C22.9808 47.7167 25.7527 48.6999 28.6253 48.9605C27.0202 44.5242 25.9186 39.9044 25.3559 35.2312Z" fill="#fff"/>
<path d="M20.5173 47.1006C20.3337 50.2634 20.5707 53.444 21.2103 56.5535C25.0069 58.6502 29.3188 59.7637 33.6839 59.7637C33.7017 59.7637 33.7254 59.7637 33.7432 59.7637C31.8538 56.6009 30.2427 53.2722 28.9456 49.8607C25.9546 49.6593 23.0464 48.7057 20.5114 47.1065L20.5173 47.1006Z" fill="#fff"/>
<path d="M19.7769 45.5311C20.1382 41.8234 21.0562 38.2045 22.5014 34.7633C22.5547 34.633 22.5014 34.4849 22.3652 34.4257C21.7788 34.1414 21.2576 33.7624 20.8074 33.3063C20.7068 33.2056 20.5587 33.1938 20.4521 33.2708C18.1954 35.0121 16.2468 37.2272 14.8135 39.6734C16.004 41.9537 17.7157 43.9734 19.7769 45.5311Z" fill="#fff"/>
<path d="M19.6822 46.5439C17.4849 44.9803 15.631 42.9251 14.3161 40.5796C13.1138 42.8777 12.326 45.3534 11.9766 47.9417C14.0792 51.1816 16.9222 53.9594 20.2153 55.9732C19.6408 52.8637 19.4572 49.689 19.6822 46.5439Z" fill="#fff"/>
<path d="M7.82422 33.8864C7.82422 38.4233 9.01472 42.8832 11.2773 46.7983C11.7333 44.2692 12.5921 41.8586 13.83 39.6434C12.6573 37.2328 12.0413 34.6504 11.9999 31.9614C10.5724 32.4649 9.16872 33.0868 7.83014 33.7975V33.8864H7.82422Z" fill="#fff"/>
<path d="M19.9185 32.5892C20.0252 32.5063 20.0489 32.3582 19.9778 32.2397C19.6698 31.7304 19.4506 31.1795 19.3144 30.605C19.2848 30.4688 19.1604 30.374 19.0301 30.3918C16.9393 30.5991 14.8663 31.0315 12.8525 31.6771C12.8525 34.1351 13.3619 36.5101 14.3629 38.749C15.814 36.4035 17.733 34.2772 19.9185 32.5951V32.5892Z" fill="#fff"/>
<path d="M10.9039 21.6265C9.0323 25.0973 8.00171 28.8583 7.8418 32.8089C9.19222 32.1159 10.5841 31.5177 11.9937 31.0379H12.0056C12.1004 28.343 12.7637 25.7784 13.9898 23.3915C13.125 22.8999 12.2721 22.4083 11.4133 21.9167L10.9039 21.6265Z" fill="#fff"/>
<path d="M12.8819 30.7531C14.8601 30.143 16.9095 29.7284 18.9647 29.5211C19.0891 29.5093 19.1839 29.4145 19.2016 29.2901C19.2135 29.1894 19.2253 29.0769 19.2312 28.9585C19.2727 28.4491 19.326 27.7561 19.7169 26.8914C19.7702 26.7729 19.7169 26.6308 19.5985 26.5656C17.9756 25.6535 16.3527 24.7354 14.7358 23.8174C13.6282 25.9852 13.0063 28.3129 12.876 30.7472L12.8819 30.7531Z" fill="#fff"/>
<path d="M14.3981 22.6331C15.8315 20.1455 17.8453 18.0014 20.244 16.4318C19.9716 15.0932 19.7287 13.6777 19.5333 12.2266C16.1868 14.424 13.3498 17.4091 11.3301 20.874L11.9579 21.2353C12.7693 21.7032 13.5808 22.1711 14.4041 22.639L14.3981 22.6331Z" fill="#fff"/>
<path d="M15.1514 23.0594C16.715 23.9478 18.3675 24.8837 20.0674 25.8372C20.1799 25.9024 20.3221 25.8728 20.405 25.7662C20.8847 25.162 21.4711 24.6764 22.1404 24.3091C22.2588 24.244 22.3121 24.1137 22.2707 23.9952C21.5481 21.8215 20.9262 19.5827 20.4346 17.3379C18.2787 18.8127 16.4544 20.785 15.1514 23.0594Z" fill="#fff"/>
<path d="M21.0319 15.9401C23.3537 14.5837 25.8768 13.7723 28.5362 13.5295C29.5727 11.5808 30.8284 9.73881 32.2736 8.05078C28.0683 8.27585 23.946 9.54927 20.333 11.7289C20.5225 13.1563 20.7535 14.5719 21.026 15.9401H21.0319Z" fill="#fff"/>
<path d="M23.0696 23.6401C23.1111 23.7704 23.2592 23.8474 23.4013 23.8118C23.9462 23.6697 24.5089 23.6045 25.0538 23.6282C25.1841 23.6401 25.2966 23.5394 25.3203 23.4032C25.7705 20.2877 26.7004 17.273 28.0804 14.4478C25.6461 14.7498 23.3362 15.5494 21.2217 16.8406C21.7133 19.1328 22.3352 21.419 23.0755 23.646L23.0696 23.6401Z" fill="#fff"/>
<path d="M33.5476 8.00928C33.5476 8.00928 33.4884 8.00928 33.4588 8.00928C31.9603 9.66769 30.6513 11.4979 29.5615 13.4583C29.7511 13.4524 29.9761 13.4465 30.2012 13.4465C32.6 13.4465 34.9454 13.9144 37.1724 14.8443C39.7074 13.1207 42.4557 11.7525 45.352 10.7871C41.7153 8.94509 37.7943 8.00928 33.6898 8.00928C33.6424 8.00928 33.595 8.00928 33.5476 8.00928Z" fill="#fff"/>
<path d="M26.1729 23.5335C26.1551 23.6638 26.2381 23.7941 26.3743 23.8296C26.8067 23.9481 27.2272 24.1258 27.6181 24.3449C27.7366 24.4101 27.8846 24.3804 27.9616 24.2679C30.1709 20.8682 33.0612 17.8179 36.3248 15.4369C34.3584 14.6906 32.3031 14.3115 30.2005 14.3115C29.8629 14.3115 29.5016 14.3234 29.0811 14.353C27.6122 17.2315 26.629 20.3173 26.167 23.5335H26.1729Z" fill="#fff"/>
<path d="M55.4506 19.9027C53.1821 16.3786 50.0667 13.423 46.4241 11.356C43.4804 12.2562 40.6848 13.5711 38.1143 15.2591C40.7559 16.5385 43.0776 18.4575 44.8249 20.8089C48.3194 20.1159 51.8968 19.8138 55.4506 19.8968V19.9027Z" fill="#fff"/>
<path d="M37.2724 15.8218C33.8904 18.1969 30.9112 21.3005 28.6546 24.789C28.5835 24.8956 28.6072 25.0437 28.702 25.1326C29.0633 25.4642 29.3772 25.8433 29.6378 26.2579C29.7148 26.3823 29.8688 26.4238 29.9932 26.3527C34.3287 23.871 39.0019 22.0704 43.8824 21.0102C42.1351 18.7714 39.8548 16.9827 37.2724 15.8218Z" fill="#fff"/>
<path d="M30.4909 28.5857C30.5087 28.722 30.6153 28.8227 30.7456 28.8227C30.7456 28.8227 30.7515 28.8227 30.7574 28.8227C32.6054 28.7338 34.5125 28.6627 36.4019 28.6627C37.9597 28.6627 39.5115 28.7101 41.004 28.8404C43.1481 29.024 45.31 29.2965 47.4363 29.6578C47.1105 26.8385 46.0799 24.114 44.4512 21.7744C39.4878 22.8109 34.7435 24.6233 30.3428 27.1524C30.2362 27.2176 30.1829 27.3538 30.2303 27.4782C30.3547 27.8395 30.4435 28.2126 30.4909 28.5857Z" fill="#fff"/>
<path d="M59.5189 32.7019C59.3294 28.5144 58.1093 24.398 55.9889 20.7909C52.4411 20.6606 48.8696 20.9331 45.3691 21.5965C47.0098 24.0545 48.0285 26.8974 48.3247 29.8234C52.0975 30.5045 55.8645 31.4758 59.5189 32.7019Z" fill="#fff"/>
<path d="M59.5486 33.626C55.906 32.3881 52.1568 31.4049 48.3958 30.7119C48.4136 31.0614 48.4254 31.3753 48.4254 31.6714C48.4254 34.6625 47.685 37.6239 46.2754 40.2478C49.6929 42.0365 53.2348 43.7956 56.8063 45.4777C58.6246 41.8529 59.5486 37.9497 59.5486 33.8807C59.5486 33.8214 59.5486 33.7622 59.5486 33.6971C59.5486 33.6734 59.5486 33.6437 59.5486 33.6201V33.626Z" fill="#fff"/>
<path d="M47.5197 30.5519C45.3341 30.1729 43.119 29.8886 40.9334 29.705C39.4645 29.5806 37.9424 29.5332 36.4024 29.5332C34.513 29.5332 32.5999 29.6043 30.746 29.6931C30.6157 29.6931 30.5151 29.7997 30.4973 29.936C30.4558 30.3032 30.3788 30.6645 30.2722 31.0139C30.2367 31.1324 30.2781 31.2627 30.3848 31.3278C35.4311 34.3485 40.9393 37.4462 45.5177 39.8331C46.8504 37.3337 47.5552 34.5203 47.5552 31.6773C47.5552 31.3397 47.5434 30.9784 47.5138 30.5579L47.5197 30.5519Z" fill="#fff"/>
<path d="M45.0909 40.5795L44.9192 40.4907C40.3585 38.1038 35.0872 35.1423 30.0882 32.1513C30.0468 32.1276 29.9994 32.1157 29.952 32.1157C29.8632 32.1157 29.7802 32.1572 29.7329 32.2342C29.5078 32.6073 29.2353 32.9627 28.9214 33.2825C28.8326 33.3714 28.8148 33.5076 28.88 33.6083C31.7348 38.3111 35.0161 42.7592 38.6468 46.8341C41.3003 45.3475 43.5273 43.1915 45.0909 40.5795Z" fill="#fff"/>
<path d="M30.207 49.031C32.89 49.031 35.4665 48.4328 37.8593 47.2483C34.2937 43.2207 31.0599 38.8377 28.2406 34.212C28.205 34.1527 28.1458 34.1054 28.0747 34.0935C28.0096 34.0757 27.9385 34.0935 27.8852 34.1231C27.4232 34.4134 26.9316 34.6384 26.4222 34.7865C26.2919 34.822 26.209 34.9464 26.2208 35.0767C26.7954 39.8387 27.9207 44.5296 29.5791 49.0251C29.7924 49.031 29.9997 49.037 30.2129 49.037L30.207 49.031Z" fill="#fff"/>
<path d="M38.457 47.918C35.8806 49.2329 33.1027 49.9021 30.2005 49.9021C30.0998 49.9021 29.9991 49.9021 29.8984 49.9021C31.2133 53.3078 32.8421 56.6187 34.7434 59.746C39.0256 59.5742 43.2309 58.3245 46.909 56.133C43.9298 53.598 41.0868 50.838 38.457 47.9239V47.918Z" fill="#fff"/>
<path d="M39.2451 47.4915C41.8749 50.3819 44.7119 53.1242 47.6912 55.6414C51.3337 53.29 54.3485 50.0443 56.4156 46.2477C52.8382 44.5656 49.2844 42.8006 45.8491 41C44.244 43.689 41.9637 45.9278 39.2451 47.4856V47.4915Z" fill="#fff"/>
<path d="M15.4045 57.9082L13.3857 60.6216L13.8942 60.9999L15.913 58.2865L15.4045 57.9082Z" fill="#fff"/>
<path d="M13.7114 56.5414L12.9355 57.3765C12.5209 57.8207 12.0826 58.3064 11.8753 58.5611H11.8694C11.9997 58.1465 12.4321 56.2926 12.6098 55.5226L12.053 55.0073L9.74902 57.489L10.1755 57.8858L10.9336 57.0685C11.3127 56.6598 11.6977 56.2452 11.9346 55.9431H11.9405C11.8102 56.334 11.4489 58.0102 11.2475 58.8809L11.8339 59.4258L14.1379 56.9441L13.7114 56.5473V56.5414Z" fill="#fff"/>
<path d="M10.5424 53.2899L10.1338 52.7983L7.93044 54.6226L7.26708 53.8112L6.8584 54.1488L8.59973 56.2573L9.00841 55.9197L8.33912 55.1083L10.5424 53.2899Z" fill="#fff"/>
<path d="M7.4982 49.0195L7.01252 49.2387L7.9898 50.7609L7.16652 51.288L6.284 49.908L5.83979 50.1923L6.72822 51.5723L6.02932 52.0224L5.09943 50.5773L4.66113 50.8616L5.91679 52.828L8.7657 50.9978L7.4982 49.0195Z" fill="#fff"/>
<path d="M6.5684 47.2541L5.30091 47.8583L5.06399 47.3607C4.82115 46.8455 4.94553 46.6678 5.31275 46.496L5.36606 46.4723C5.67997 46.3242 5.90504 46.2058 6.01165 46.0932L5.75105 45.5483C5.63259 45.6609 5.38975 45.7734 5.18245 45.8741L5.0403 45.9452C4.50132 46.1999 4.43616 46.5078 4.46578 46.7211C4.25848 46.5197 3.92679 46.4012 3.51812 46.5908C3.04428 46.8158 2.85475 47.3371 3.16274 47.9945L3.77872 49.2857L6.83493 47.8287L6.5684 47.266V47.2541ZM3.97418 48.4861L3.67803 47.8701C3.51219 47.5147 3.57734 47.2601 3.85572 47.1298C4.14002 46.9935 4.37101 47.0824 4.56054 47.4851L4.84484 48.0774L3.9801 48.4861H3.97418Z" fill="#fff"/>
<path d="M5.05162 43.6476L3.96181 43.9912C3.38137 44.1748 2.75946 44.3761 2.4574 44.4946C2.77131 44.1985 4.06842 42.7947 4.60148 42.2143L4.37641 41.4917L1.14844 42.5045L1.3202 43.0613L2.3804 42.7296C2.90754 42.5637 3.45244 42.392 3.80782 42.2439C3.50575 42.5223 2.35671 43.8016 1.7585 44.4531L1.99541 45.2172L5.22339 44.2044L5.0457 43.6476H5.05162Z" fill="#fff"/>
<path d="M3.97463 39.6912L3.07435 39.5372L2.86705 38.2756L3.66664 37.8255L3.56003 37.1621L0.420898 38.9212L0.551202 39.703L4.08125 40.3012L3.98056 39.6853L3.97463 39.6912ZM0.953959 39.2647C1.22641 39.1344 1.65286 38.8975 2.37545 38.5066L2.53537 39.4839C1.84832 39.3773 1.27972 39.2943 0.953959 39.2647Z" fill="#fff"/>
<path d="M0.610058 35.7939L3.46489 35.6458L3.43528 35.0121L0.580443 35.1602L0.527137 34.1118L0 34.1355L0.142149 36.8719L0.663364 36.8423L0.610058 35.7939Z" fill="#fff"/>
<path d="M0.0659327 31.9601L0.0390625 32.5933L3.42391 32.7369L3.45078 32.1037L0.0659327 31.9601Z" fill="#fff"/>
<path d="M1.84228 30.4277C2.80179 30.5758 3.64877 30.1434 3.80868 29.1128C3.97453 28.0348 3.25193 27.3655 2.32204 27.2234C1.30922 27.0694 0.52148 27.5669 0.373408 28.5383C0.21349 29.5689 0.876853 30.2796 1.84228 30.4277ZM0.882776 28.6449C0.983466 27.9815 1.56391 27.7742 2.22727 27.8749C2.86695 27.9756 3.40001 28.3191 3.29339 29.0062C3.1927 29.6459 2.60634 29.8769 1.92521 29.7702C1.25 29.6636 0.776164 29.2964 0.882776 28.639V28.6449Z" fill="#fff"/>
<path d="M4.5013 25.5885L3.41149 25.2509C2.83105 25.0732 2.20322 24.8837 1.88338 24.8126C2.30983 24.7415 4.16962 24.3269 4.9396 24.1551L5.16467 23.4325L1.93077 22.4375L1.759 22.9943L2.82512 23.32C3.35818 23.4859 3.89717 23.6517 4.27623 23.7287C3.87348 23.7879 2.20322 24.1907 1.33848 24.3861L1.10156 25.1502L4.33546 26.1452L4.50723 25.5885H4.5013Z" fill="#fff"/>
<path d="M5.86337 21.7267L5.21185 21.087L5.75676 19.9321L6.66888 20.015L6.95318 19.4108L3.36983 19.0732L3.03223 19.7899L5.59684 22.2894L5.86337 21.7208V21.7267ZM3.61859 19.6596C3.91474 19.707 4.40041 19.7544 5.21185 19.8432L4.79133 20.7435C4.28196 20.2697 3.86735 19.8728 3.61267 19.6596H3.61859Z" fill="#fff"/>
<path d="M8.784 16.4553L8.37532 16.1059L7.46319 17.557L5.04665 16.0229L4.70312 16.5619L7.56388 18.3743L8.784 16.4553Z" fill="#fff"/>
<path d="M11.2411 13.3932L10.2876 12.4988L10.7673 11.9835C11.2234 11.4979 11.3359 10.8759 10.8147 10.3962C10.3527 9.96382 9.74266 10.0408 9.2629 10.5502L8.33301 11.5452L10.8029 13.8611L11.2352 13.3991L11.2411 13.3932ZM9.14444 11.4268L9.58866 10.9529C9.81965 10.7042 10.1158 10.6213 10.3823 10.876C10.6489 11.1247 10.6015 11.409 10.3409 11.6874L9.9085 12.1494L9.13852 11.4268H9.14444Z" fill="#fff"/>
<path d="M14.6656 10.2183C15.5126 9.53129 15.4237 8.54809 14.8314 7.81957C14.1858 7.01998 13.2619 6.86598 12.5037 7.48197C11.6923 8.13941 11.7101 9.11076 12.3261 9.86889C12.9361 10.6211 13.8542 10.8699 14.6656 10.2183ZM12.8117 7.90841C13.3329 7.48789 13.9015 7.7248 14.3221 8.24602C14.7307 8.74946 14.8907 9.35952 14.3517 9.80374C13.8542 10.2124 13.2559 9.98143 12.8236 9.45429C12.3971 8.92715 12.2905 8.33486 12.8058 7.91434L12.8117 7.90841Z" fill="#fff"/>
<path d="M19.0124 7.18585L18.8051 6.70017L17.3421 7.59453L15.8495 5.1543L15.3105 5.48598L17.0756 8.37635L19.0124 7.18585Z" fill="#fff"/>
<path d="M20.5642 6.39837L20.4872 5.48625L21.654 4.97096L22.2877 5.63432L22.8978 5.36187L20.4102 2.76172L19.6816 3.08155L19.9837 6.65306L20.5582 6.39837H20.5642ZM20.2265 3.35993C20.4161 3.59092 20.7478 3.9463 21.3104 4.55043L20.4042 4.95319C20.3332 4.26021 20.2739 3.68569 20.2206 3.36585L20.2265 3.35993Z" fill="#fff"/>
<path d="M24.6271 4.79911L24.2302 3.45461L24.7633 3.30061C25.3082 3.1407 25.4622 3.28877 25.5806 3.67968L25.5984 3.73299C25.6932 4.06467 25.7761 4.30751 25.8709 4.43189L26.4513 4.26012C26.3625 4.12982 26.2855 3.86921 26.2203 3.64414L26.1729 3.49015C26.0012 2.91563 25.7109 2.80901 25.4977 2.80309C25.7287 2.63133 25.9005 2.31741 25.7702 1.89097C25.6221 1.38752 25.1364 1.11507 24.4434 1.32237L23.0693 1.72513L24.0229 4.97087L24.6211 4.79318L24.6271 4.79911ZM24.4731 1.84951C24.8521 1.73697 25.089 1.84951 25.172 2.13973C25.2608 2.4418 25.1364 2.65502 24.7159 2.7794L24.0881 2.96301L23.8156 2.04496L24.4731 1.84951Z" fill="#fff"/>
<path d="M30.432 3.59059L30.2957 2.18686L31.8594 2.03287L31.812 1.51166L30.2484 1.65973L30.1595 0.741679L31.8298 0.581761L31.7765 0.0605469L29.4902 0.279694L29.8101 3.64982L30.432 3.59059Z" fill="#fff"/>
<path d="M34.8501 3.48432C35.9399 3.52578 36.5204 2.72619 36.5559 1.79037C36.5914 0.765712 36.0051 0.0431194 35.0278 0.00165917C33.9854 -0.0398011 33.3575 0.70056 33.322 1.68376C33.2865 2.65511 33.8136 3.44286 34.8501 3.48432ZM34.9804 0.522874C35.6497 0.546565 35.9221 1.10332 35.8985 1.7726C35.8748 2.4182 35.5964 2.9868 34.8975 2.9631C34.2519 2.93941 33.9557 2.37674 33.9794 1.69561C34.0031 1.01447 34.317 0.505105 34.9804 0.528796V0.522874Z" fill="#fff"/>
<path d="M39.1863 3.95245C39.9148 4.08275 40.6078 3.90506 40.8151 2.78564L41.1704 0.82516L40.5426 0.712625L40.1813 2.70272C40.0628 3.36608 39.7312 3.53784 39.287 3.45492C38.902 3.38385 38.5762 3.12324 38.7006 2.43026L39.0619 0.440172L38.4341 0.327637L38.0728 2.31181C37.8773 3.39569 38.4518 3.82214 39.1803 3.95837L39.1863 3.95245Z" fill="#fff"/>
<path d="M42.9766 3.6444C43.1721 3.06988 43.3735 2.44798 43.4564 2.12814H43.4623C43.5097 2.55459 43.8828 4.43214 44.0368 5.20804L44.7535 5.45088L45.8374 2.24068L45.2866 2.05707L44.9312 3.11134C44.7535 3.63848 44.5699 4.17746 44.4811 4.5506H44.4751C44.4337 4.14192 44.0783 2.46574 43.9006 1.58916L43.1425 1.33447L42.0586 4.54468L42.6153 4.73421L42.9826 3.65032L42.9766 3.6444Z" fill="#fff"/>
<path d="M49.5802 5.82978C50.0363 4.93543 49.752 4.06476 48.8872 3.62055L47.7323 3.03418L46.1982 6.05485L47.3295 6.62937C48.2357 7.09136 49.1301 6.7123 49.5802 5.82978ZM48.058 3.78639L48.597 4.05884C49.2367 4.3846 49.2545 5.0065 48.9879 5.53364C48.674 6.15554 48.1587 6.46946 47.5309 6.14962L46.9919 5.87717L48.0521 3.78639H48.058Z" fill="#fff"/>
<path d="M50.1608 8.24035L50.8952 7.70137L51.9436 8.42989L51.7067 9.31832L52.2575 9.69739L53.1815 6.22065L52.53 5.77051L49.6455 7.8909L50.1608 8.24628V8.24035ZM52.5714 6.36872C52.4707 6.65302 52.3404 7.12685 52.1213 7.91459L51.3039 7.35192C51.8607 6.93139 52.3167 6.58194 52.5655 6.36872H52.5714Z" fill="#fff"/>
<path d="M53.8987 11.1013L55.7822 8.95125L56.5699 9.63831L56.9194 9.24148L54.8582 7.44092L54.5088 7.83775L55.3024 8.53073L53.4189 10.6867L53.8987 11.1013Z" fill="#fff"/>
<path d="M57.9975 10.3567L55.5352 12.6836L55.9704 13.1442L58.4328 10.8173L57.9975 10.3567Z" fill="#fff"/>
<path d="M57.8602 15.4722C58.5177 16.3428 59.5009 16.2836 60.2531 15.7209C61.0704 15.099 61.26 14.1869 60.6677 13.4051C60.0399 12.5759 59.0685 12.5581 58.2867 13.1504C57.5108 13.7367 57.2324 14.6489 57.8602 15.4781V15.4722ZM58.6954 13.6598C59.2403 13.2511 59.8326 13.1622 60.2353 13.6953C60.6381 14.2283 60.3834 14.791 59.8503 15.1997C59.335 15.5906 58.7191 15.7328 58.2985 15.176C57.9076 14.6607 58.1564 14.0744 58.7013 13.6598H58.6954Z" fill="#fff"/>
<path d="M63.689 18.2741L62.7117 18.8131C62.2261 19.0796 61.7285 19.352 61.4087 19.5712C61.6515 19.2395 62.5222 17.7588 62.9842 17.0007L62.5992 16.3018L59.6318 17.9365L59.9161 18.4518L60.9171 17.9009C61.4502 17.6107 62.0188 17.2909 62.2971 17.1073C62.0484 17.4626 61.0533 19.0914 60.6387 19.7666L61.0059 20.43L63.9733 18.8012L63.6949 18.2918L63.689 18.2741Z" fill="#fff"/>
</svg>
