<svg width="147" height="58" viewBox="0 0 147 58" fill="none" xmlns="http://www.w3.org/2000/svg">
<circle cx="18" cy="49" r="9" fill="#0074F0"/>
<circle cx="18" cy="49" r="3" fill="white"/>
<rect width="147" height="22" rx="5" fill="#0074F0"/>
<path d="M4.18 13.24H5.875C5.875 13.885 6.1 14.74 7.09 14.74C7.75 14.74 8.2 14.365 8.335 13.66C8.47 12.91 8.26 12.28 7.165 11.41C5.635 10.195 5.095 9.28 5.335 7.945C5.56 6.655 6.46 5.68 8.11 5.68C10.675 5.68 10.885 7.705 10.825 8.47H9.13C9.13 8.065 9.055 7.105 8.05 7.105C7.435 7.105 7.105 7.48 7 8.05C6.895 8.65 7.075 9.085 8.23 9.955C10 11.305 10.39 12.355 10.06 13.9C9.775 15.145 8.83 16.18 7.09 16.18C4.525 16.18 4.09 14.44 4.18 13.24ZM15.3904 13.165H17.1454C16.8304 14.305 16.0654 16.18 13.8004 16.18C11.6254 16.18 10.6654 14.485 11.5054 10.615C12.1204 7.795 13.3054 5.68 15.5704 5.68C17.8354 5.68 18.1654 7.405 18.0304 8.59H16.3054C16.3204 8.08 16.3954 7.15 15.3904 7.15C14.4004 7.15 13.7404 8.545 13.2904 10.705C12.7504 13.24 12.8104 14.695 13.9654 14.695C14.8354 14.695 15.2704 13.63 15.3904 13.165ZM19.7695 5.845H21.5395L19.3795 16H17.6095L19.7695 5.845ZM27.5133 9.91L27.1833 11.44H23.8983L23.2683 14.47H27.1233L26.5683 16H21.1983L23.3583 5.845H28.5183L28.1733 7.39H24.7533L24.2283 9.91H27.5133ZM29.4251 16H27.7901L29.9501 5.845H31.9901C32.8151 11.065 33.0401 12.715 33.0851 13.285H33.1001C33.2801 12.07 33.6401 10.285 34.0001 8.62L34.5851 5.845H36.1901L34.0301 16H32.0951C31.3001 10.69 31.0601 8.725 31.0001 8.14H30.9851C30.7901 9.385 30.4451 11.215 30.0551 13.045L29.4251 16ZM37.0932 16L38.9232 7.39H36.8232L37.1532 5.845H43.1232L42.7932 7.39H40.6932L38.8632 16H37.0932ZM44.1884 5.845H45.9584L43.7984 16H42.0284L44.1884 5.845ZM45.6173 16L47.7773 5.845H53.0273L52.6823 7.39H49.1873L48.6473 9.985H51.9473L51.6173 11.515H48.3173L47.3723 16H45.6173ZM54.0761 5.845H55.8461L53.6861 16H51.9161L54.0761 5.845ZM60.1267 13.165H61.8817C61.5667 14.305 60.8017 16.18 58.5367 16.18C56.3617 16.18 55.4017 14.485 56.2417 10.615C56.8567 7.795 58.0417 5.68 60.3067 5.68C62.5717 5.68 62.9017 7.405 62.7667 8.59H61.0417C61.0567 8.08 61.1317 7.15 60.1267 7.15C59.1367 7.15 58.4767 8.545 58.0267 10.705C57.4867 13.24 57.5467 14.695 58.7017 14.695C59.5717 14.695 60.0067 13.63 60.1267 13.165ZM67.3183 5.845H69.0883L66.9283 16H65.1583L67.3183 5.845ZM70.3821 16H68.7471L70.9071 5.845H72.9471C73.7721 11.065 73.9971 12.715 74.0421 13.285H74.0571C74.2371 12.07 74.5971 10.285 74.9571 8.62L75.5421 5.845H77.1471L74.9871 16H73.0521C72.2571 10.69 72.0171 8.725 71.9571 8.14H71.9421C71.7471 9.385 71.4021 11.215 71.0121 13.045L70.3821 16ZM76.8216 13.24H78.5166C78.5166 13.885 78.7416 14.74 79.7316 14.74C80.3916 14.74 80.8416 14.365 80.9766 13.66C81.1116 12.91 80.9016 12.28 79.8066 11.41C78.2766 10.195 77.7366 9.28 77.9766 7.945C78.2016 6.655 79.1016 5.68 80.7516 5.68C83.3166 5.68 83.5266 7.705 83.4666 8.47H81.7716C81.7716 8.065 81.6966 7.105 80.6916 7.105C80.0766 7.105 79.7466 7.48 79.6416 8.05C79.5366 8.65 79.7166 9.085 80.8716 9.955C82.6416 11.305 83.0316 12.355 82.7016 13.9C82.4166 15.145 81.4716 16.18 79.7316 16.18C77.1666 16.18 76.7316 14.44 76.8216 13.24ZM84.349 16L86.179 7.39H84.079L84.409 5.845H90.379L90.049 7.39H87.949L86.119 16H84.349ZM92.9293 11.605H91.9693L91.0543 16H89.2843L91.4443 5.845H94.1593C96.4543 5.845 97.1743 7.285 96.7843 8.995C96.4543 10.405 95.5693 10.81 94.9543 10.99C95.6143 11.32 95.9593 12.01 95.6593 13.525C95.4193 14.8 95.2993 15.415 95.2693 16H93.5743C93.5593 15.55 93.6793 14.74 93.9343 13.51C94.2043 12.115 93.9943 11.605 92.9293 11.605ZM92.8993 7.3L92.2843 10.165H93.1393C94.1293 10.165 94.7893 9.925 94.9993 8.905C95.1943 7.975 94.8343 7.3 93.7843 7.3H92.8993ZM98.7221 5.845H100.477L99.0221 12.745C98.8121 13.69 98.8421 14.695 99.9821 14.695C101.092 14.695 101.362 13.705 101.572 12.745L103.042 5.845H104.797L103.327 12.805C102.937 14.665 102.277 16.18 99.7721 16.18C97.4771 16.18 96.8471 14.665 97.2371 12.82L98.7221 5.845ZM110.853 16L111.648 12.22C112.022 10.495 112.488 8.455 112.743 7.315H112.713C111.978 9.22 110.373 13.105 109.098 16H107.523C107.583 13.48 107.673 9.175 107.778 7.285H107.718C107.523 8.47 107.133 10.63 106.758 12.385L105.978 16H104.358L106.517 5.845H109.158C109.218 8.26 109.158 11.545 109.038 12.97H109.053C109.518 11.605 111.108 8.14 112.173 5.845H114.693L112.533 16H110.853ZM120.677 9.91L120.347 11.44H117.062L116.432 14.47H120.287L119.732 16H114.362L116.522 5.845H121.682L121.337 7.39H117.917L117.392 9.91H120.677ZM122.589 16H120.954L123.114 5.845H125.154C125.979 11.065 126.204 12.715 126.249 13.285H126.264C126.444 12.07 126.804 10.285 127.164 8.62L127.749 5.845H129.354L127.194 16H125.259C124.464 10.69 124.224 8.725 124.164 8.14H124.149C123.954 9.385 123.609 11.215 123.219 13.045L122.589 16ZM130.257 16L132.087 7.39H129.987L130.317 5.845H136.287L135.957 7.39H133.857L132.027 16H130.257ZM135.533 13.24H137.228C137.228 13.885 137.453 14.74 138.443 14.74C139.103 14.74 139.553 14.365 139.688 13.66C139.823 12.91 139.613 12.28 138.518 11.41C136.988 10.195 136.448 9.28 136.688 7.945C136.913 6.655 137.813 5.68 139.463 5.68C142.028 5.68 142.238 7.705 142.178 8.47H140.483C140.483 8.065 140.408 7.105 139.403 7.105C138.788 7.105 138.458 7.48 138.353 8.05C138.248 8.65 138.428 9.085 139.583 9.955C141.353 11.305 141.743 12.355 141.413 13.9C141.128 15.145 140.183 16.18 138.443 16.18C135.878 16.18 135.443 14.44 135.533 13.24Z" fill="white"/>
<path d="M18 40L14 22L22 22L18 40Z" fill="#0074F0"/>
</svg>
