<svg width="189" height="58" viewBox="0 0 189 58" fill="none" xmlns="http://www.w3.org/2000/svg">
<circle cx="18" cy="49" r="9" fill="#0074F0"/>
<circle cx="18" cy="49" r="3" fill="white"/>
<rect width="189" height="22" rx="5" fill="#0074F0"/>
<path d="M6.94 16H5.2L5.5 5.845H7.24C7.105 8.215 6.895 11.71 6.67 13.495H6.685C7.345 11.68 8.815 8.11 9.73 5.845H11.29C11.2 7.975 11.11 11.575 10.96 13.525H10.99C11.635 11.425 13.06 7.78 13.72 5.845H15.475L11.32 16H9.58C9.64 14.515 9.685 10.84 9.835 8.86H9.805C9.25 10.54 7.75 14.035 6.94 16ZM19.1568 5.68C21.5118 5.68 22.3368 7.51 21.5118 11.38C20.7918 14.74 19.4418 16.18 17.5668 16.18C15.0618 16.18 14.4918 13.96 15.2568 10.465C15.9168 7.42 17.2368 5.68 19.1568 5.68ZM19.1118 7.18C18.1068 7.18 17.4768 8.485 16.9968 10.69C16.5168 12.985 16.4868 14.68 17.6718 14.68C18.6018 14.68 19.1718 13.765 19.7568 11.185C20.2668 8.89 20.4168 7.18 19.1118 7.18ZM25.605 11.605H24.645L23.73 16H21.96L24.12 5.845H26.835C29.13 5.845 29.85 7.285 29.46 8.995C29.13 10.405 28.245 10.81 27.63 10.99C28.29 11.32 28.635 12.01 28.335 13.525C28.095 14.8 27.975 15.415 27.945 16H26.25C26.235 15.55 26.355 14.74 26.61 13.51C26.88 12.115 26.67 11.605 25.605 11.605ZM25.575 7.3L24.96 10.165H25.815C26.805 10.165 27.465 9.925 27.675 8.905C27.87 7.975 27.51 7.3 26.46 7.3H25.575ZM29.3429 16L31.5029 5.845H33.2429L32.2529 10.435C33.0929 9.355 34.7879 7.255 35.8829 5.845H37.9679L34.4279 10L35.9579 16H34.1429L33.0629 11.35L31.7729 12.745L31.0829 16H29.3429ZM36.846 13.24H38.541C38.541 13.885 38.766 14.74 39.756 14.74C40.416 14.74 40.866 14.365 41.001 13.66C41.136 12.91 40.926 12.28 39.831 11.41C38.301 10.195 37.761 9.28 38.001 7.945C38.226 6.655 39.126 5.68 40.776 5.68C43.341 5.68 43.551 7.705 43.491 8.47H41.796C41.796 8.065 41.721 7.105 40.716 7.105C40.101 7.105 39.771 7.48 39.666 8.05C39.561 8.65 39.741 9.085 40.896 9.955C42.666 11.305 43.056 12.355 42.726 13.9C42.441 15.145 41.496 16.18 39.756 16.18C37.191 16.18 36.756 14.44 36.846 13.24ZM43.4932 16L45.6532 5.845H47.4232L46.5682 9.88H49.1032L49.9582 5.845H51.7282L49.5682 16H47.7982L48.7732 11.41H46.2382L45.2632 16H43.4932ZM56.0855 5.68C58.4405 5.68 59.2655 7.51 58.4405 11.38C57.7205 14.74 56.3705 16.18 54.4955 16.18C51.9905 16.18 51.4205 13.96 52.1855 10.465C52.8455 7.42 54.1655 5.68 56.0855 5.68ZM56.0405 7.18C55.0355 7.18 54.4055 8.485 53.9255 10.69C53.4455 12.985 53.4155 14.68 54.6005 14.68C55.5305 14.68 56.1005 13.765 56.6855 11.185C57.1955 8.89 57.3455 7.18 56.0405 7.18ZM58.8888 16L61.0487 5.845H63.4338C65.7588 5.845 66.6738 7.315 66.2238 9.4C65.8038 11.32 64.3938 11.995 62.6987 11.995H61.4988L60.6588 16H58.8888ZM62.5038 7.315L61.8288 10.525H62.8188C63.7788 10.525 64.3638 10.09 64.5588 9.085C64.7538 8.035 64.3788 7.315 63.3438 7.315H62.5038ZM66.2601 13.24H67.9551C67.9551 13.885 68.1801 14.74 69.1701 14.74C69.8301 14.74 70.2801 14.365 70.4151 13.66C70.5501 12.91 70.3401 12.28 69.2451 11.41C67.7151 10.195 67.1751 9.28 67.4151 7.945C67.6401 6.655 68.5401 5.68 70.1901 5.68C72.7551 5.68 72.9651 7.705 72.9051 8.47H71.2101C71.2101 8.065 71.1351 7.105 70.1301 7.105C69.5151 7.105 69.1851 7.48 69.0801 8.05C68.9751 8.65 69.1551 9.085 70.3101 9.955C72.0801 11.305 72.4701 12.355 72.1401 13.9C71.8551 15.145 70.9101 16.18 69.1701 16.18C66.6051 16.18 66.1701 14.44 66.2601 13.24ZM78.4076 14.575C78.9776 14.575 79.3226 14.305 79.8476 13.63L78.5576 11.575C77.8826 12.07 77.5976 12.475 77.5076 13.045C77.3726 13.795 77.5826 14.575 78.4076 14.575ZM82.4726 9.925H84.3176L81.7226 13.495L83.3276 16H81.3326L80.6426 14.89C79.9076 15.73 79.2476 16.12 78.1076 16.12C76.3526 16.12 75.4676 14.74 75.8276 13.09C76.0526 12.01 76.4876 11.425 77.8976 10.495C77.4026 9.595 77.1776 8.815 77.4026 7.735C77.6876 6.43 78.5426 5.725 79.8176 5.725C81.5426 5.725 82.2476 7.225 81.9176 8.5C81.6476 9.505 81.2126 9.85 79.9376 10.675L80.8976 12.175L82.4726 9.925ZM79.7576 7.045C79.3226 7.045 79.0376 7.33 78.9176 7.885C78.7976 8.485 78.9326 8.95 79.2926 9.625C80.0726 9.085 80.2826 8.8 80.4326 8.23C80.5826 7.57 80.3426 7.045 79.7576 7.045ZM88.3773 16L90.2073 7.39H88.1073L88.4373 5.845H94.4073L94.0773 7.39H91.9773L90.1473 16H88.3773ZM99.6276 9.91L99.2976 11.44H96.0126L95.3826 14.47H99.2376L98.6826 16H93.3126L95.4726 5.845H100.633L100.288 7.39H96.8676L96.3426 9.91H99.6276ZM104.658 13.165H106.413C106.098 14.305 105.333 16.18 103.068 16.18C100.893 16.18 99.933 14.485 100.773 10.615C101.388 7.795 102.573 5.68 104.838 5.68C107.103 5.68 107.433 7.405 107.298 8.59H105.573C105.588 8.08 105.663 7.15 104.658 7.15C103.668 7.15 103.008 8.545 102.558 10.705C102.018 13.24 102.078 14.695 103.233 14.695C104.103 14.695 104.538 13.63 104.658 13.165ZM106.877 16L109.037 5.845H110.807L109.952 9.88H112.487L113.342 5.845H115.112L112.952 16H111.182L112.157 11.41H109.622L108.647 16H106.877ZM116.408 16H114.773L116.933 5.845H118.973C119.798 11.065 120.023 12.715 120.068 13.285H120.083C120.263 12.07 120.623 10.285 120.983 8.62L121.568 5.845H123.173L121.013 16H119.078C118.283 10.69 118.043 8.725 117.983 8.14H117.968C117.773 9.385 117.428 11.215 117.038 13.045L116.408 16ZM125.004 5.845H126.774L124.614 16H122.844L125.004 5.845ZM131.054 13.165H132.809C132.494 14.305 131.729 16.18 129.464 16.18C127.289 16.18 126.329 14.485 127.169 10.615C127.784 7.795 128.969 5.68 131.234 5.68C133.499 5.68 133.829 7.405 133.694 8.59H131.969C131.984 8.08 132.059 7.15 131.054 7.15C130.064 7.15 129.404 8.545 128.954 10.705C128.414 13.24 128.474 14.695 129.629 14.695C130.499 14.695 130.934 13.63 131.054 13.165ZM138.053 13.405H135.668L134.603 16H132.818L137.198 5.845H139.583L139.778 16H138.053V13.405ZM136.283 11.905H138.023C138.008 9.985 138.038 8.215 138.083 7.24H138.038C137.738 8.2 137.063 9.91 136.283 11.905ZM140.642 16L142.802 5.845H144.572L142.742 14.47H146.192L145.712 16H140.642ZM153.99 13.405H151.605L150.54 16H148.755L153.135 5.845H155.52L155.715 16H153.99V13.405ZM152.22 11.905H153.96C153.945 9.985 153.975 8.215 154.02 7.24H153.975C153.675 8.2 153 9.91 152.22 11.905ZM160.224 11.605H159.264L158.349 16H156.579L158.739 5.845H161.454C163.749 5.845 164.469 7.285 164.079 8.995C163.749 10.405 162.864 10.81 162.249 10.99C162.909 11.32 163.254 12.01 162.954 13.525C162.714 14.8 162.594 15.415 162.564 16H160.869C160.854 15.55 160.974 14.74 161.229 13.51C161.499 12.115 161.289 11.605 160.224 11.605ZM160.194 7.3L159.579 10.165H160.434C161.424 10.165 162.084 9.925 162.294 8.905C162.489 7.975 162.129 7.3 161.079 7.3H160.194ZM170.277 9.91L169.947 11.44H166.662L166.032 14.47H169.887L169.332 16H163.962L166.122 5.845H171.282L170.937 7.39H167.517L166.992 9.91H170.277ZM175.509 13.405H173.124L172.059 16H170.274L174.654 5.845H177.039L177.234 16H175.509V13.405ZM173.739 11.905H175.479C175.464 9.985 175.494 8.215 175.539 7.24H175.494C175.194 8.2 174.519 9.91 173.739 11.905ZM178.277 13.24H179.972C179.972 13.885 180.197 14.74 181.187 14.74C181.847 14.74 182.297 14.365 182.432 13.66C182.567 12.91 182.357 12.28 181.262 11.41C179.732 10.195 179.192 9.28 179.432 7.945C179.657 6.655 180.557 5.68 182.207 5.68C184.772 5.68 184.982 7.705 184.922 8.47H183.227C183.227 8.065 183.152 7.105 182.147 7.105C181.532 7.105 181.202 7.48 181.097 8.05C180.992 8.65 181.172 9.085 182.327 9.955C184.097 11.305 184.487 12.355 184.157 13.9C183.872 15.145 182.927 16.18 181.187 16.18C178.622 16.18 178.187 14.44 178.277 13.24Z" fill="white"/>
<path d="M18 40L14 22L22 22L18 40Z" fill="#0074F0"/>
</svg>
