<svg width="211" height="76" viewBox="0 0 211 76" fill="none" xmlns="http://www.w3.org/2000/svg">
<circle cx="18" cy="67" r="9" fill="#0074F0"/>
<circle cx="18" cy="67" r="3" fill="white"/>
<rect width="211" height="27" rx="5" fill="#0074F0"/>
<path d="M4.264 16.952H6.75C6.75 17.898 7.08 19.152 8.532 19.152C9.5 19.152 10.16 18.602 10.358 17.568C10.556 16.468 10.248 15.544 8.642 14.268C6.398 12.486 5.606 11.144 5.958 9.186C6.288 7.294 7.608 5.864 10.028 5.864C13.79 5.864 14.098 8.834 14.01 9.956H11.524C11.524 9.362 11.414 7.954 9.94 7.954C9.038 7.954 8.554 8.504 8.4 9.34C8.246 10.22 8.51 10.858 10.204 12.134C12.8 14.114 13.372 15.654 12.888 17.92C12.47 19.746 11.084 21.264 8.532 21.264C4.77 21.264 4.132 18.712 4.264 16.952ZM20.7059 16.842H23.2799C22.8179 18.514 21.6959 21.264 18.3739 21.264C15.1839 21.264 13.7759 18.778 15.0079 13.102C15.9099 8.966 17.6479 5.864 20.9699 5.864C24.2919 5.864 24.7759 8.394 24.5779 10.132H22.0479C22.0699 9.384 22.1799 8.02 20.7059 8.02C19.2539 8.02 18.2859 10.066 17.6259 13.234C16.8339 16.952 16.9219 19.086 18.6159 19.086C19.8919 19.086 20.5299 17.524 20.7059 16.842ZM27.1285 6.106H29.7245L26.5565 21H23.9605L27.1285 6.106ZM38.4862 12.068L38.0022 14.312H33.1842L32.2602 18.756H37.9142L37.1002 21H29.2242L32.3922 6.106H39.9602L39.4542 8.372H34.4382L33.6682 12.068H38.4862ZM41.2902 21H38.8922L42.0602 6.106H45.0522C46.2622 13.762 46.5922 16.182 46.6582 17.018H46.6802C46.9442 15.236 47.4722 12.618 48.0002 10.176L48.8582 6.106H51.2122L48.0442 21H45.2062C44.0402 13.212 43.6882 10.33 43.6002 9.472H43.5782C43.2922 11.298 42.7862 13.982 42.2142 16.666L41.2902 21ZM52.5366 21L55.2206 8.372H52.1406L52.6246 6.106H61.3806L60.8966 8.372H57.8166L55.1326 21H52.5366ZM62.943 6.106H65.539L62.371 21H59.775L62.943 6.106ZM65.0387 21L68.2067 6.106H75.9067L75.4007 8.372H70.2747L69.4827 12.178H74.3227L73.8387 14.422H68.9987L67.6127 21H65.0387ZM77.4449 6.106H80.0409L76.8729 21H74.2769L77.4449 6.106ZM86.3192 16.842H88.8932C88.4312 18.514 87.3092 21.264 83.9872 21.264C80.7972 21.264 79.3892 18.778 80.6212 13.102C81.5232 8.966 83.2612 5.864 86.5832 5.864C89.9052 5.864 90.3892 8.394 90.1912 10.132H87.6612C87.6832 9.384 87.7932 8.02 86.3192 8.02C84.8672 8.02 83.8992 10.066 83.2392 13.234C82.4472 16.952 82.5352 19.086 84.2292 19.086C85.5052 19.086 86.1432 17.524 86.3192 16.842ZM96.8668 6.106H99.4628L96.2948 21H93.6988L96.8668 6.106ZM101.36 21H98.9625L102.13 6.106H105.122C106.332 13.762 106.662 16.182 106.728 17.018H106.75C107.014 15.236 107.542 12.618 108.07 10.176L108.928 6.106H111.282L108.114 21H105.276C104.11 13.212 103.758 10.33 103.67 9.472H103.648C103.362 11.298 102.856 13.982 102.284 16.666L101.36 21ZM110.805 16.952H113.291C113.291 17.898 113.621 19.152 115.073 19.152C116.041 19.152 116.701 18.602 116.899 17.568C117.097 16.468 116.789 15.544 115.183 14.268C112.939 12.486 112.147 11.144 112.499 9.186C112.829 7.294 114.149 5.864 116.569 5.864C120.331 5.864 120.639 8.834 120.551 9.956H118.065C118.065 9.362 117.955 7.954 116.481 7.954C115.579 7.954 115.095 8.504 114.941 9.34C114.787 10.22 115.051 10.858 116.745 12.134C119.341 14.114 119.913 15.654 119.429 17.92C119.011 19.746 117.625 21.264 115.073 21.264C111.311 21.264 110.673 18.712 110.805 16.952ZM121.845 21L124.529 8.372H121.449L121.933 6.106H130.689L130.205 8.372H127.125L124.441 21H121.845ZM134.43 14.554H133.022L131.68 21H129.084L132.252 6.106H136.234C139.6 6.106 140.656 8.218 140.084 10.726C139.6 12.794 138.302 13.388 137.4 13.652C138.368 14.136 138.874 15.148 138.434 17.37C138.082 19.24 137.906 20.142 137.862 21H135.376C135.354 20.34 135.53 19.152 135.904 17.348C136.3 15.302 135.992 14.554 134.43 14.554ZM134.386 8.24L133.484 12.442H134.738C136.19 12.442 137.158 12.09 137.466 10.594C137.752 9.23 137.224 8.24 135.684 8.24H134.386ZM142.926 6.106H145.5L143.366 16.226C143.058 17.612 143.102 19.086 144.774 19.086C146.402 19.086 146.798 17.634 147.106 16.226L149.262 6.106H151.836L149.68 16.314C149.108 19.042 148.14 21.264 144.466 21.264C141.1 21.264 140.176 19.042 140.748 16.336L142.926 6.106ZM160.717 21L161.883 15.456C162.433 12.926 163.115 9.934 163.489 8.262H163.445C162.367 11.056 160.013 16.754 158.143 21H155.833C155.921 17.304 156.053 10.99 156.207 8.218H156.119C155.833 9.956 155.261 13.124 154.711 15.698L153.567 21H151.191L154.359 6.106H158.231C158.319 9.648 158.231 14.466 158.055 16.556H158.077C158.759 14.554 161.091 9.472 162.653 6.106H166.349L163.181 21H160.717ZM175.127 12.068L174.643 14.312H169.825L168.901 18.756H174.555L173.741 21H165.865L169.033 6.106H176.601L176.095 8.372H171.079L170.309 12.068H175.127ZM177.931 21H175.533L178.701 6.106H181.693C182.903 13.762 183.233 16.182 183.299 17.018H183.321C183.585 15.236 184.113 12.618 184.641 10.176L185.499 6.106H187.853L184.685 21H181.847C180.681 13.212 180.329 10.33 180.241 9.472H180.219C179.933 11.298 179.427 13.982 178.855 16.666L177.931 21ZM189.177 21L191.861 8.372H188.781L189.265 6.106H198.021L197.537 8.372H194.457L191.773 21H189.177ZM196.914 16.952H199.4C199.4 17.898 199.73 19.152 201.182 19.152C202.15 19.152 202.81 18.602 203.008 17.568C203.206 16.468 202.898 15.544 201.292 14.268C199.048 12.486 198.256 11.144 198.608 9.186C198.938 7.294 200.258 5.864 202.678 5.864C206.44 5.864 206.748 8.834 206.66 9.956H204.174C204.174 9.362 204.064 7.954 202.59 7.954C201.688 7.954 201.204 8.504 201.05 9.34C200.896 10.22 201.16 10.858 202.854 12.134C205.45 14.114 206.022 15.654 205.538 17.92C205.12 19.746 203.734 21.264 201.182 21.264C197.42 21.264 196.782 18.712 196.914 16.952Z" fill="white"/>
<path d="M17.5 58L10 24L25 24L17.5 58Z" fill="#0074F0"/>
</svg>
