<svg width="216" height="58" viewBox="0 0 216 58" fill="none" xmlns="http://www.w3.org/2000/svg">
<rect width="216" height="27" rx="5" fill="white"/>
<path d="M10.952 16.842H13.526C13.064 18.514 11.942 21.264 8.62 21.264C5.43 21.264 4.022 18.778 5.254 13.102C6.156 8.966 7.894 5.864 11.216 5.864C14.538 5.864 15.022 8.394 14.824 10.132H12.294C12.316 9.384 12.426 8.02 10.952 8.02C9.5 8.02 8.532 10.066 7.872 13.234C7.08 16.952 7.168 19.086 8.862 19.086C10.138 19.086 10.776 17.524 10.952 16.842ZM21.2026 5.864C24.6566 5.864 25.8666 8.548 24.6566 14.224C23.6006 19.152 21.6206 21.264 18.8706 21.264C15.1966 21.264 14.3606 18.008 15.4826 12.882C16.4506 8.416 18.3866 5.864 21.2026 5.864ZM21.1366 8.064C19.6626 8.064 18.7386 9.978 18.0346 13.212C17.3306 16.578 17.2866 19.064 19.0246 19.064C20.3886 19.064 21.2246 17.722 22.0826 13.938C22.8306 10.572 23.0506 8.064 21.1366 8.064ZM27.712 21H25.314L28.482 6.106H31.474C32.684 13.762 33.014 16.182 33.08 17.018H33.102C33.366 15.236 33.894 12.618 34.422 10.176L35.28 6.106H37.634L34.466 21H31.628C30.462 13.212 30.11 10.33 30.022 9.472H30C29.714 11.298 29.208 13.982 28.636 16.666L27.712 21ZM37.1566 16.952H39.6426C39.6426 17.898 39.9726 19.152 41.4246 19.152C42.3926 19.152 43.0526 18.602 43.2506 17.568C43.4486 16.468 43.1406 15.544 41.5346 14.268C39.2906 12.486 38.4986 11.144 38.8506 9.186C39.1806 7.294 40.5006 5.864 42.9206 5.864C46.6826 5.864 46.9906 8.834 46.9026 9.956H44.4166C44.4166 9.362 44.3066 7.954 42.8326 7.954C41.9306 7.954 41.4466 8.504 41.2926 9.34C41.1386 10.22 41.4026 10.858 43.0966 12.134C45.6926 14.114 46.2646 15.654 45.7806 17.92C45.3626 19.746 43.9766 21.264 41.4246 21.264C37.6626 21.264 37.0246 18.712 37.1566 16.952ZM48.1968 21L50.8808 8.372H47.8008L48.2848 6.106H57.0408L56.5568 8.372H53.4768L50.7928 21H48.1968ZM60.7811 14.554H59.3731L58.0311 21H55.4351L58.6031 6.106H62.5851C65.9511 6.106 67.0071 8.218 66.4351 10.726C65.9511 12.794 64.6531 13.388 63.7511 13.652C64.7191 14.136 65.2251 15.148 64.7851 17.37C64.4331 19.24 64.2571 20.142 64.2131 21H61.7271C61.7051 20.34 61.8811 19.152 62.2551 17.348C62.6511 15.302 62.3431 14.554 60.7811 14.554ZM60.7371 8.24L59.8351 12.442H61.0891C62.5411 12.442 63.5091 12.09 63.8171 10.594C64.1031 9.23 63.5751 8.24 62.0351 8.24H60.7371ZM69.2773 6.106H71.8513L69.7173 16.226C69.4093 17.612 69.4533 19.086 71.1253 19.086C72.7533 19.086 73.1493 17.634 73.4573 16.226L75.6133 6.106H78.1873L76.0313 16.314C75.4593 19.042 74.4913 21.264 70.8173 21.264C67.4513 21.264 66.5273 19.042 67.0993 16.336L69.2773 6.106ZM84.4286 16.842H87.0026C86.5406 18.514 85.4186 21.264 82.0966 21.264C78.9066 21.264 77.4986 18.778 78.7306 13.102C79.6326 8.966 81.3706 5.864 84.6926 5.864C88.0146 5.864 88.4986 8.394 88.3006 10.132H85.7706C85.7926 9.384 85.9026 8.02 84.4286 8.02C82.9766 8.02 82.0086 10.066 81.3486 13.234C80.5566 16.952 80.6446 19.086 82.3386 19.086C83.6146 19.086 84.2526 17.524 84.4286 16.842ZM89.5327 21L92.2167 8.372H89.1367L89.6207 6.106H98.3767L97.8927 8.372H94.8127L92.1287 21H89.5327ZM99.9391 6.106H102.535L99.3671 21H96.7711L99.9391 6.106ZM108.923 5.864C112.377 5.864 113.587 8.548 112.377 14.224C111.321 19.152 109.341 21.264 106.591 21.264C102.917 21.264 102.081 18.008 103.203 12.882C104.171 8.416 106.107 5.864 108.923 5.864ZM108.857 8.064C107.383 8.064 106.459 9.978 105.755 13.212C105.051 16.578 105.007 19.064 106.745 19.064C108.109 19.064 108.945 17.722 109.803 13.938C110.551 10.572 110.771 8.064 108.857 8.064ZM115.433 21H113.035L116.203 6.106H119.195C120.405 13.762 120.735 16.182 120.801 17.018H120.823C121.087 15.236 121.615 12.618 122.143 10.176L123.001 6.106H125.355L122.187 21H119.349C118.183 13.212 117.831 10.33 117.743 9.472H117.721C117.435 11.298 116.929 13.982 116.357 16.666L115.433 21ZM132.832 18.91C133.668 18.91 134.174 18.514 134.944 17.524L133.052 14.51C132.062 15.236 131.644 15.83 131.512 16.666C131.314 17.766 131.622 18.91 132.832 18.91ZM138.794 12.09H141.5L137.694 17.326L140.048 21H137.122L136.11 19.372C135.032 20.604 134.064 21.176 132.392 21.176C129.818 21.176 128.52 19.152 129.048 16.732C129.378 15.148 130.016 14.29 132.084 12.926C131.358 11.606 131.028 10.462 131.358 8.878C131.776 6.964 133.03 5.93 134.9 5.93C137.43 5.93 138.464 8.13 137.98 10C137.584 11.474 136.946 11.98 135.076 13.19L136.484 15.39L138.794 12.09ZM134.812 7.866C134.174 7.866 133.756 8.284 133.58 9.098C133.404 9.978 133.602 10.66 134.13 11.65C135.274 10.858 135.582 10.44 135.802 9.604C136.022 8.636 135.67 7.866 134.812 7.866ZM145.541 21L148.709 6.106H151.305L150.051 12.024H153.769L155.023 6.106H157.619L154.451 21H151.855L153.285 14.268H149.567L148.137 21H145.541ZM160.289 6.106H162.885L159.717 21H157.121L160.289 6.106ZM162.389 16.952H164.875C164.875 17.898 165.205 19.152 166.657 19.152C167.625 19.152 168.285 18.602 168.483 17.568C168.681 16.468 168.373 15.544 166.767 14.268C164.523 12.486 163.731 11.144 164.083 9.186C164.413 7.294 165.733 5.864 168.153 5.864C171.915 5.864 172.223 8.834 172.135 9.956H169.649C169.649 9.362 169.539 7.954 168.065 7.954C167.163 7.954 166.679 8.504 166.525 9.34C166.371 10.22 166.635 10.858 168.329 12.134C170.925 14.114 171.497 15.654 171.013 17.92C170.595 19.746 169.209 21.264 166.657 21.264C162.895 21.264 162.257 18.712 162.389 16.952ZM173.429 21L176.113 8.372H173.033L173.517 6.106H182.273L181.789 8.372H178.709L176.025 21H173.429ZM187.384 5.864C190.838 5.864 192.048 8.548 190.838 14.224C189.782 19.152 187.802 21.264 185.052 21.264C181.378 21.264 180.542 18.008 181.664 12.882C182.632 8.416 184.568 5.864 187.384 5.864ZM187.318 8.064C185.844 8.064 184.92 9.978 184.216 13.212C183.512 16.578 183.468 19.064 185.206 19.064C186.57 19.064 187.406 17.722 188.264 13.938C189.012 10.572 189.232 8.064 187.318 8.064ZM196.842 14.554H195.434L194.092 21H191.496L194.664 6.106H198.646C202.012 6.106 203.068 8.218 202.496 10.726C202.012 12.794 200.714 13.388 199.812 13.652C200.78 14.136 201.286 15.148 200.846 17.37C200.494 19.24 200.318 20.142 200.274 21H197.788C197.766 20.34 197.942 19.152 198.316 17.348C198.712 15.302 198.404 14.554 196.842 14.554ZM196.798 8.24L195.896 12.442H197.15C198.602 12.442 199.57 12.09 199.878 10.594C200.164 9.23 199.636 8.24 198.096 8.24H196.798ZM206.949 21H204.353L205.519 15.522C205.563 15.346 205.563 15.214 205.519 15.038L203.781 6.106H206.377C206.729 8.13 207.279 12.046 207.345 12.904C208.577 10.704 209.963 8.306 211.173 6.106H213.989L208.269 15.214C208.203 15.302 208.137 15.39 208.093 15.698L206.949 21Z" fill="#0074F0"/>
<path d="M17.5 58L10 24L25 24L17.5 58Z" fill="white"/>
</svg>
